<?xml version="1.0" encoding="utf-8"?>
<!-- Generator: Adobe Illustrator 14.0.0, SVG Export Plug-In . SVG Version: 6.00 Build 43363)  -->
<!DOCTYPE svg PUBLIC "-//W3C//DTD SVG 1.1//EN" "http://www.w3.org/Graphics/SVG/1.1/DTD/svg11.dtd">
<svg version="1.1" id="Layer_1" xmlns="http://www.w3.org/2000/svg" xmlns:xlink="http://www.w3.org/1999/xlink" x="0px" y="0px"
	 width="18px" height="18px" viewBox="0 0 18 18" enable-background="new 0 0 18 18" xml:space="preserve">
<path fill="none" d="M0,0h18v18H0V0z"/>
<path fill="#002F75" d="M15,9c0-0.825,0.675-1.5,1.5-1.5v-3C16.5,3.675,15.825,3,15,3H3C2.175,3,1.507,3.675,1.507,4.5v3
	C2.333,7.5,3,8.175,3,9s-0.667,1.5-1.5,1.5v3C1.5,14.325,2.175,15,3,15h12c0.825,0,1.5-0.675,1.5-1.5v-3C15.675,10.5,15,9.825,15,9z
	 M11.686,12.6L9,10.875L6.315,12.6l0.81-3.09L4.658,7.493l3.18-0.188L9,4.35l1.154,2.962L13.335,7.5l-2.468,2.018L11.686,12.6z"/>
</svg>
