<?xml version="1.0" encoding="utf-8"?>
<!-- Generator: Adobe Illustrator 14.0.0, SVG Export Plug-In . SVG Version: 6.00 Build 43363)  -->
<!DOCTYPE svg PUBLIC "-//W3C//DTD SVG 1.1//EN" "http://www.w3.org/Graphics/SVG/1.1/DTD/svg11.dtd">
<svg version="1.1" id="Layer_1" xmlns="http://www.w3.org/2000/svg" xmlns:xlink="http://www.w3.org/1999/xlink" x="0px" y="0px"
	 width="18px" height="18px" viewBox="0 0 18 18" enable-background="new 0 0 18 18" xml:space="preserve">
<path fill="none" d="M0,0h18v18H0V0z"/>
<path fill="#FFFFFF" d="M16.058,8.685l-6.75-6.75C9.038,1.665,8.663,1.5,8.25,1.5H3C2.175,1.5,1.5,2.175,1.5,3v5.25
	c0,0.413,0.165,0.788,0.442,1.065l6.75,6.75C8.962,16.335,9.337,16.5,9.75,16.5c0.412,0,0.787-0.165,1.058-0.442l5.25-5.25
	c0.277-0.271,0.442-0.646,0.442-1.058C16.5,9.337,16.328,8.955,16.058,8.685z M4.125,5.25C3.502,5.25,3,4.748,3,4.125
	S3.502,3,4.125,3S5.25,3.502,5.25,4.125S4.748,5.25,4.125,5.25z M12.953,11.453L9.75,14.655l-3.203-3.202
	C6.21,11.107,6,10.643,6,10.125C6,9.09,6.84,8.25,7.875,8.25c0.518,0,0.99,0.21,1.328,0.555l0.547,0.54l0.547-0.547
	c0.338-0.337,0.811-0.547,1.328-0.547c1.035,0,1.875,0.84,1.875,1.875C13.5,10.643,13.29,11.115,12.953,11.453z"/>
</svg>
