<?xml version="1.0" encoding="utf-8"?>
<!-- Generator: Adobe Illustrator 14.0.0, SVG Export Plug-In . SVG Version: 6.00 Build 43363)  -->
<!DOCTYPE svg PUBLIC "-//W3C//DTD SVG 1.1//EN" "http://www.w3.org/Graphics/SVG/1.1/DTD/svg11.dtd">
<svg version="1.1" id="Layer_1" xmlns="http://www.w3.org/2000/svg" xmlns:xlink="http://www.w3.org/1999/xlink" x="0px" y="0px"
	 width="18px" height="18px" viewBox="0 0 18 18" enable-background="new 0 0 18 18" xml:space="preserve">
<g>
	<rect fill="none" width="18" height="18"/>
</g>
<g>
	<path fill="#FFFFFF" d="M12.75,8.25v-6h-7.5v3h-3v10.5h6v-3h1.5v3h6v-7.5H12.75z M5.25,14.25h-1.5v-1.5h1.5V14.25z M5.25,11.25
		h-1.5v-1.5h1.5V11.25z M5.25,8.25h-1.5v-1.5h1.5V8.25z M8.25,11.25h-1.5v-1.5h1.5V11.25z M8.25,8.25h-1.5v-1.5h1.5V8.25z
		 M8.25,5.25h-1.5v-1.5h1.5V5.25z M11.25,11.25h-1.5v-1.5h1.5V11.25z M11.25,8.25h-1.5v-1.5h1.5V8.25z M11.25,5.25h-1.5v-1.5h1.5
		V5.25z M14.25,14.25h-1.5v-1.5h1.5V14.25z M14.25,11.25h-1.5v-1.5h1.5V11.25z"/>
</g>
</svg>
