<?xml version="1.0" encoding="utf-8"?>
<!-- Generator: Adobe Illustrator 14.0.0, SVG Export Plug-In . SVG Version: 6.00 Build 43363)  -->
<!DOCTYPE svg PUBLIC "-//W3C//DTD SVG 1.1//EN" "http://www.w3.org/Graphics/SVG/1.1/DTD/svg11.dtd">
<svg version="1.1" id="Layer_1" xmlns="http://www.w3.org/2000/svg" xmlns:xlink="http://www.w3.org/1999/xlink" x="0px" y="0px"
	 width="18px" height="18px" viewBox="0 0 18 18" enable-background="new 0 0 18 18" xml:space="preserve">
<path fill="none" d="M0,0h18v18H0V0z"/>
<path fill="#002F75" d="M9,1.5C4.86,1.5,1.5,4.86,1.5,9c0,4.141,3.36,7.5,7.5,7.5c4.141,0,7.5-3.359,7.5-7.5
	C16.5,4.86,13.141,1.5,9,1.5z M8.25,14.947C5.288,14.58,3,12.061,3,9c0-0.465,0.06-0.907,0.158-1.343L6.75,11.25V12
	c0,0.825,0.675,1.5,1.5,1.5V14.947z M13.425,13.043C13.23,12.436,12.675,12,12,12h-0.75V9.75C11.25,9.337,10.912,9,10.5,9H6V7.5h1.5
	c0.413,0,0.75-0.337,0.75-0.75v-1.5h1.5c0.825,0,1.5-0.675,1.5-1.5V3.442C13.447,4.335,15,6.487,15,9
	C15,10.561,14.4,11.978,13.425,13.043z"/>
</svg>
