<?xml version="1.0" encoding="utf-8"?>
<!-- Generator: Adobe Illustrator 14.0.0, SVG Export Plug-In . SVG Version: 6.00 Build 43363)  -->
<!DOCTYPE svg PUBLIC "-//W3C//DTD SVG 1.1//EN" "http://www.w3.org/Graphics/SVG/1.1/DTD/svg11.dtd">
<svg version="1.1" id="Layer_1" xmlns="http://www.w3.org/2000/svg" xmlns:xlink="http://www.w3.org/1999/xlink" x="0px" y="0px"
	 width="18px" height="18px" viewBox="0 0 18 18" enable-background="new 0 0 18 18" xml:space="preserve">
<g>
	<rect fill="none" width="18" height="18"/>
</g>
<g>
	<g>
		<path fill="#FFFFFF" d="M15.75,3.75c-0.832-0.263-1.748-0.375-2.625-0.375c-1.463,0-3.037,0.3-4.125,1.125
			C7.913,3.675,6.337,3.375,4.875,3.375S1.837,3.675,0.75,4.5v10.987c0,0.188,0.188,0.375,0.375,0.375
			c0.075,0,0.112-0.037,0.188-0.037C2.325,15.338,3.788,15,4.875,15C6.337,15,7.913,15.3,9,16.125C10.013,15.487,11.85,15,13.125,15
			c1.237,0,2.513,0.225,3.563,0.787c0.075,0.038,0.112,0.038,0.188,0.038c0.188,0,0.375-0.188,0.375-0.375V4.5
			C16.8,4.163,16.313,3.938,15.75,3.75z M15.75,13.875c-0.825-0.263-1.725-0.375-2.625-0.375c-1.275,0-3.112,0.487-4.125,1.125V6
			c1.013-0.638,2.85-1.125,4.125-1.125c0.9,0,1.8,0.112,2.625,0.375V13.875z"/>
		<g>
			<path fill="#FFFFFF" d="M13.125,7.875c0.66,0,1.297,0.067,1.875,0.195V6.93c-0.592-0.113-1.23-0.18-1.875-0.18
				c-1.275,0-2.43,0.218-3.375,0.623v1.245C10.598,8.138,11.775,7.875,13.125,7.875z"/>
			<path fill="#FFFFFF" d="M9.75,9.368v1.245c0.848-0.479,2.025-0.742,3.375-0.742c0.66,0,1.297,0.067,1.875,0.194v-1.14
				c-0.592-0.112-1.23-0.18-1.875-0.18C11.85,8.745,10.695,8.97,9.75,9.368z"/>
			<path fill="#FFFFFF" d="M13.125,10.748c-1.275,0-2.43,0.217-3.375,0.622v1.245c0.848-0.48,2.025-0.742,3.375-0.742
				c0.66,0,1.297,0.066,1.875,0.194v-1.14C14.408,10.808,13.77,10.748,13.125,10.748z"/>
		</g>
	</g>
</g>
</svg>
