<?xml version="1.0" encoding="utf-8"?>
<!-- Generator: Adobe Illustrator 14.0.0, SVG Export Plug-In . SVG Version: 6.00 Build 43363)  -->
<!DOCTYPE svg PUBLIC "-//W3C//DTD SVG 1.1//EN" "http://www.w3.org/Graphics/SVG/1.1/DTD/svg11.dtd">
<svg version="1.1" id="Layer_1" xmlns="http://www.w3.org/2000/svg" xmlns:xlink="http://www.w3.org/1999/xlink" x="0px" y="0px"
	 width="800px" height="100px" viewBox="0 0 800 100" enable-background="new 0 0 800 100" xml:space="preserve">
<g>
	<g id="aquaplanet">
		<path fill="none" stroke="#FFFFFF" stroke-width="3" d="M334.697,8.199c-1.981,0-3.604,1.627-3.604,3.632V74.44
			c0,2.017,1.622,3.622,3.604,3.622c1.987,0,3.627-1.605,3.627-3.622V11.808C338.324,9.826,336.684,8.199,334.697,8.199
			 M298.046,26.303c-3.382,0-11.549,0.842-17.546,8.254v-6.422c0-1.969-1.628-3.599-3.615-3.599c-1.987,0-3.615,1.63-3.615,3.599
			V90.7c0,2.016,1.62,3.632,3.609,3.632c1.993,0,3.621-1.616,3.621-3.632V68.065c6.058,7.526,14.87,8.142,17.546,8.142
			c14.329,0,25.533-10.988,25.533-25.038C323.579,38.964,314.025,26.303,298.046,26.303 M298.046,69.591
			c-10.031,0-17.891-8.016-17.891-18.229c0-10.168,8.021-18.422,17.891-18.422c9.111,0,18.311,6.353,18.311,18.479
			C316.356,61.78,308.486,69.591,298.046,69.591 M426.803,26.303c-6.453,0-11.109,2.902-13.74,6.023v-4.191
			c0-1.969-1.613-3.599-3.609-3.599c-1.992,0-3.617,1.63-3.617,3.599c0,0.034,0,0.069,0.023,0.08v46.159
			c-0.023,0.022-0.023,0.057-0.023,0.066c0,2.017,1.625,3.622,3.617,3.622c1.996,0,3.609-1.605,3.609-3.622V48.972
			c-0.068-5.242,1.389-9.599,4.135-12.241c3.607-3.519,8.27-3.79,9.605-3.79c1.346,0,6.023,0.271,9.633,3.803
			c2.711,2.612,4.201,6.956,4.201,12.229V74.44c0,2.017,1.615,3.622,3.609,3.622c1.986,0,3.615-1.605,3.615-3.622V48.972
			c0-7.185-2.053-13.003-5.941-16.796C437.85,28.111,433.193,26.303,426.803,26.303 M535.607,27.497h-10.469V11.808
			c0-1.981-1.609-3.608-3.605-3.608c-1.98,0-3.605,1.627-3.605,3.608v0.058v15.632h-9.082c-1.836,0-3.316,1.479-3.316,3.313
			s1.48,3.324,3.316,3.324h0.086h8.996v39.807v0.08v0.077v0.342c0,0.161,0.08,0.275,0.156,0.377
			c0.379,1.651,1.803,2.802,3.449,2.802c1.652,0,3.055-1.129,3.465-2.746c0.094-0.101,0.141-0.248,0.141-0.433V34.135h10.381h0.088
			c1.813,0,3.305-1.49,3.305-3.324S537.42,27.497,535.607,27.497 M479.887,26.303c-13.605,0.272-24.682,11.5-24.682,25.06
			c0,13.708,11.113,24.845,24.781,24.845c9.613,0,18.451-5.728,22.51-14.541c0.018-0.023,0.047-0.147,0.068-0.182
			c0.912-2.643-0.535-4.225-2.203-4.792c-0.344-0.127-0.723-0.195-1.096-0.195c-1.563,0-2.914,1.047-3.387,2.586
			c-1.742,4.736-6.959,10.326-15.98,10.508c-8.596,0-16.473-7.16-17.262-15.484h41.457c0.35,0,0.629-0.262,0.658-0.614
			c0.311-5.591-0.92-10.658-3.645-15.008C497.773,32.679,490.439,26.417,479.887,26.303 M462.715,47.479
			c1.902-9.974,10.201-14.539,17.271-14.539c6.98,0,15.264,4.565,17.316,14.539H462.715z M392.782,24.536
			c-1.986,0-3.621,1.63-3.621,3.599v0.069v6.249c-5.584-7.309-14.018-8.15-17.545-8.15c-15.992,0-25.538,12.661-25.538,24.866
			c0,14.05,11.232,25.038,25.538,25.038c3.461,0,11.815-0.831,17.545-8.129v6.318v0.034c0,2.026,1.635,3.632,3.621,3.632
			c1.996,0,3.609-1.605,3.609-3.622V28.135C396.391,26.166,394.778,24.536,392.782,24.536 M371.616,69.591
			c-10.615,0-18.322-7.64-18.322-18.171c0-12.127,9.222-18.479,18.322-18.479c9.869,0,17.908,8.254,17.908,18.422
			C389.524,61.575,381.65,69.591,371.616,69.591"/>
		<path fill="none" stroke="#FFFFFF" stroke-width="3" d="M74.083,28.181c0-2.015-1.625-3.621-3.621-3.621
			c-1.987,0-3.604,1.606-3.604,3.621V34.5c-5.596-7.332-14.041-8.163-17.557-8.163c-15.991,0-25.533,12.638-25.533,24.854
			c0,14.056,11.215,25.037,25.533,25.037c3.468,0,11.805-0.842,17.557-8.117v6.354c0,2.015,1.617,3.621,3.604,3.621
			c1.995,0,3.621-1.606,3.621-3.621c0-0.011-0.005-0.034-0.005-0.068V28.249C74.078,28.215,74.083,28.204,74.083,28.181
			 M49.302,69.604c-10.617,0-18.317-7.64-18.317-18.173c0-12.125,9.211-18.467,18.317-18.467c9.858,0,17.879,8.254,17.879,18.409
			C67.181,61.604,59.341,69.604,49.302,69.604 M127.868,24.56c-1.99,0-3.615,1.606-3.615,3.621c0,0.023,0.005,0.045,0.005,0.08
			v6.249c-5.641-7.342-14.056-8.173-17.56-8.173c-15.978,0-25.544,12.638-25.544,24.854c0,14.056,11.229,25.037,25.544,25.037
			c3.493,0,11.876-0.842,17.56-8.094v22.532c0,0-0.005,0.033-0.005,0.067c0,1.994,1.625,3.61,3.615,3.61
			c1.987,0,3.607-1.616,3.607-3.61V28.181C131.475,26.166,129.855,24.56,127.868,24.56 M106.699,69.604
			c-10.447,0-18.315-7.811-18.315-18.173c0-12.125,9.198-18.467,18.315-18.467c9.872,0,17.904,8.254,17.904,18.409
			C124.603,61.604,116.732,69.604,106.699,69.604 M237.498,24.56c-2.004,0-3.619,1.606-3.619,3.621v6.296
			c-5.584-7.309-14.027-8.14-17.554-8.14c-15.986,0-25.527,12.638-25.527,24.854c0,14.056,11.21,25.037,25.527,25.037
			c3.47,0,11.811-0.842,17.554-8.117v6.354c0,2.015,1.615,3.621,3.619,3.621c1.996,0,3.604-1.606,3.604-3.621V28.181
			C241.102,26.166,239.494,24.56,237.498,24.56 M216.325,69.604c-10.603,0-18.317-7.64-18.317-18.173
			c0-12.125,9.223-18.467,18.317-18.467c9.864,0,17.891,8.254,17.891,18.409C234.216,61.604,226.365,69.604,216.325,69.604
			 M179.262,24.56c-2.002,0-3.616,1.606-3.616,3.621v0.091v24.355c0,8.117-2.198,10.987-4.645,13.436
			c-2.375,2.378-5.44,3.541-9.369,3.541c-4.338,0-7.805-1.412-10.244-4.168c-2.126-2.643-3.154-6.503-3.154-11.785v-25.47
			c0-2.015-1.62-3.621-3.617-3.621c-1.979,0-3.592,1.606-3.592,3.621v0.045V53.73c0,6.741,1.417,11.887,4.209,15.304
			c2.143,2.687,7.128,7.194,16.398,7.194c8.218,0,12.439-4.155,14.353-6.865v5.102c0,1.914,1.545,3.45,3.433,3.45
			c1.902,0,3.441-1.536,3.441-3.45V28.181C182.859,26.166,181.237,24.56,179.262,24.56"/>
	</g>
	<g id="jeju">
		<path fill="#FFFFFF" stroke="#FFFFFF" stroke-width="4" d="M597.07,7.442v45.36c0,13.747-2.66,27.581-19.328,27.581
			c-4.166,0-7.686-1.021-11.189-3.122l4.465-7.59c1.988,1.52,4.572,2.396,7.096,2.396c10.225,0,10.064-11.967,10.064-19.265V7.442
			H597.07z"/>
		<polygon fill="#FFFFFF" stroke="#FFFFFF" stroke-width="4" points="619.891,7.442 658.27,7.442 658.27,15.588 628.803,15.588 
			628.803,35.581 657.438,35.581 657.438,43.722 628.803,43.722 628.803,70.725 658.27,70.725 658.27,78.868 619.891,78.868 		"/>
		<path fill="#FFFFFF" stroke="#FFFFFF" stroke-width="4" d="M701.559,7.442v45.36c0,13.747-2.658,27.581-19.352,27.581
			c-4.146,0-7.666-1.021-11.145-3.122l4.436-7.59c1.988,1.52,4.561,2.396,7.115,2.396c10.219,0,10.039-11.967,10.039-19.265V7.442
			H701.559z"/>
		<path fill="#FFFFFF" stroke="#FFFFFF" stroke-width="4" d="M732.076,7.442v42.151c0,11.644,3.484,22.474,17.244,22.474
			c13.719,0,17.254-10.83,17.254-22.474V7.442h8.871V52.63c0,15.699-9.758,27.753-26.125,27.753
			c-16.373,0-26.137-12.054-26.137-27.753V7.442H732.076z"/>
	</g>
</g>
</svg>
