<?xml version="1.0" encoding="utf-8"?>
<!-- Generator: Adobe Illustrator 14.0.0, SVG Export Plug-In . SVG Version: 6.00 Build 43363)  -->
<!DOCTYPE svg PUBLIC "-//W3C//DTD SVG 1.1//EN" "http://www.w3.org/Graphics/SVG/1.1/DTD/svg11.dtd">
<svg version="1.1" id="Layer_1" xmlns="http://www.w3.org/2000/svg" xmlns:xlink="http://www.w3.org/1999/xlink" x="0px" y="0px"
	 width="360px" height="155px" viewBox="0 0 360 155" enable-background="new 0 0 360 155" xml:space="preserve">
<g>
	<path fill="#FFFFFF" d="M189.529,93.166c-0.926,0-1.682,0.756-1.682,1.689v29.182c0,0.935,0.756,1.686,1.682,1.686
		c0.928,0,1.688-0.751,1.688-1.686V94.845C191.217,93.922,190.457,93.166,189.529,93.166 M172.449,101.604
		c-1.572,0-5.383,0.391-8.178,3.842v-2.988c0-0.92-0.756-1.68-1.686-1.68c-0.926,0-1.684,0.76-1.684,1.68v29.154
		c0,0.94,0.754,1.692,1.682,1.692c0.932,0,1.688-0.752,1.688-1.692v-10.547c2.822,3.504,6.932,3.789,8.178,3.789
		c6.676,0,11.898-5.119,11.898-11.666C184.348,107.496,179.898,101.604,172.449,101.604 M172.449,121.771
		c-4.674,0-8.338-3.734-8.338-8.496c0-4.736,3.736-8.582,8.338-8.582c4.246,0,8.537,2.959,8.537,8.613
		C180.986,118.136,177.314,121.771,172.449,121.771 M232.449,101.604c-3.002,0-5.178,1.352-6.403,2.805v-1.951
		c0-0.92-0.75-1.68-1.683-1.68c-0.926,0-1.684,0.76-1.684,1.68c0,0.015,0,0.027,0.008,0.035v21.512
		c-0.008,0.012-0.008,0.023-0.008,0.033c0,0.935,0.758,1.686,1.684,1.686c0.933,0,1.683-0.751,1.683-1.686v-11.871
		c-0.03-2.447,0.649-4.475,1.931-5.703c1.68-1.643,3.852-1.77,4.473-1.77c0.631,0,2.809,0.127,4.49,1.774
		c1.266,1.214,1.959,3.241,1.959,5.698v11.871c0,0.935,0.752,1.686,1.682,1.686s1.684-0.751,1.684-1.686v-11.871
		c0-3.35-0.951-6.061-2.77-7.828C237.6,102.445,235.432,101.604,232.449,101.604 M283.158,102.156h-4.879v-7.312
		c0-0.923-0.752-1.679-1.682-1.679c-0.927,0-1.684,0.756-1.684,1.679v0.026v7.285h-4.234c-0.852,0-1.543,0.691-1.543,1.547
		c0,0.852,0.691,1.547,1.543,1.547h0.049h4.186v18.554v0.034v0.033v0.166c0,0.068,0.035,0.125,0.072,0.172
		c0.178,0.77,0.842,1.307,1.611,1.307s1.424-0.529,1.611-1.279c0.043-0.049,0.07-0.119,0.07-0.199V105.25h4.834h0.045
		c0.842,0,1.537-0.695,1.537-1.547C284.695,102.848,284,102.156,283.158,102.156 M257.188,101.604
		c-6.342,0.125-11.5,5.354-11.5,11.672c0,6.391,5.176,11.578,11.547,11.578c4.48,0,8.602-2.666,10.49-6.771
		c0.008-0.014,0.023-0.069,0.033-0.086c0.422-1.233-0.253-1.967-1.025-2.233c-0.162-0.06-0.338-0.089-0.512-0.089
		c-0.725,0-1.361,0.488-1.578,1.205c-0.813,2.203-3.248,4.807-7.451,4.893c-4.004,0-7.676-3.336-8.041-7.215h19.318
		c0.164,0,0.295-0.121,0.307-0.285c0.145-2.605-0.428-4.967-1.695-6.994C265.521,104.568,262.105,101.65,257.188,101.604
		 M249.188,111.472c0.885-4.653,4.756-6.778,8.047-6.778c3.252,0,7.113,2.125,8.07,6.778H249.188z M216.598,100.777
		c-0.93,0-1.686,0.76-1.686,1.68v0.029v2.916c-2.604-3.408-6.535-3.799-8.18-3.799c-7.451,0-11.902,5.893-11.902,11.584
		c0,6.547,5.234,11.666,11.902,11.666c1.617,0,5.508-0.382,8.18-3.785v2.947v0.014c0,0.942,0.756,1.693,1.686,1.693
		c0.926,0,1.682-0.751,1.682-1.686v-21.58C218.279,101.537,217.523,100.777,216.598,100.777 M206.732,121.771
		c-4.949,0-8.537-3.557-8.537-8.465c0-5.654,4.297-8.613,8.537-8.613c4.598,0,8.344,3.846,8.344,8.582
		C215.076,118.037,211.408,121.771,206.732,121.771"/>
	<path fill="#FFFFFF" d="M68.078,102.475c0-0.938-0.757-1.688-1.684-1.688c-0.927,0-1.682,0.75-1.682,1.688v2.943
		c-2.608-3.414-6.545-3.801-8.183-3.801c-7.45,0-11.897,5.889-11.897,11.586c0,6.541,5.226,11.662,11.897,11.662
		c1.616,0,5.504-0.391,8.183-3.783v2.963c0,0.939,0.755,1.689,1.682,1.689c0.927,0,1.684-0.75,1.684-1.689
		c0-0.006-0.003-0.018-0.003-0.029v-21.51C68.075,102.492,68.078,102.484,68.078,102.475 M56.529,121.777
		c-4.946,0-8.534-3.559-8.534-8.465c0-5.65,4.29-8.609,8.534-8.609c4.595,0,8.333,3.851,8.333,8.584
		C64.862,118.052,61.206,121.777,56.529,121.777 M93.143,100.787c-0.927,0-1.684,0.75-1.684,1.688c0,0.01,0.001,0.021,0.001,0.036
		v2.916c-2.625-3.423-6.549-3.81-8.182-3.81c-7.449,0-11.902,5.889-11.902,11.586c0,6.541,5.228,11.662,11.902,11.662
		c1.627,0,5.534-0.391,8.182-3.771v10.5c0,0-0.001,0.017-0.001,0.03c0,0.929,0.757,1.686,1.684,1.686c0.926,0,1.68-0.757,1.68-1.686
		v-29.15C94.823,101.537,94.069,100.787,93.143,100.787 M83.278,121.777c-4.867,0-8.537-3.639-8.537-8.465
		c0-5.65,4.289-8.609,8.537-8.609c4.602,0,8.341,3.851,8.341,8.584C91.619,118.052,87.954,121.777,83.278,121.777 M144.232,100.787
		c-0.934,0-1.686,0.75-1.686,1.688v2.938c-2.603-3.408-6.537-3.795-8.18-3.795c-7.449,0-11.9,5.889-11.9,11.586
		c0,6.541,5.229,11.662,11.9,11.662c1.614,0,5.503-0.391,8.18-3.783v2.963c0,0.939,0.752,1.689,1.686,1.689
		c0.927,0,1.683-0.75,1.683-1.689v-21.57C145.915,101.537,145.159,100.787,144.232,100.787 M134.366,121.777
		c-4.945,0-8.537-3.559-8.537-8.465c0-5.65,4.299-8.609,8.537-8.609c4.596,0,8.336,3.851,8.336,8.584
		C142.702,118.052,139.044,121.777,134.366,121.777 M117.093,100.787c-0.934,0-1.686,0.75-1.686,1.688v0.041v11.354
		c0,3.779-1.023,5.117-2.162,6.26c-1.107,1.111-2.537,1.648-4.365,1.648c-2.025,0-3.641-0.656-4.773-1.939
		c-0.994-1.234-1.472-3.031-1.472-5.491v-11.872c0-0.938-0.755-1.688-1.684-1.688c-0.925,0-1.679,0.75-1.679,1.688
		c0,0.01,0.002,0.012,0.002,0.021v11.89c0,3.134,0.659,5.536,1.959,7.13c1,1.25,3.326,3.35,7.647,3.35
		c3.828,0,5.797-1.934,6.686-3.203v2.383c0,0.891,0.72,1.605,1.601,1.605c0.885,0,1.605-0.715,1.605-1.605v-21.57
		C118.772,101.537,118.015,100.787,117.093,100.787"/>
	<path fill="#FFFFFF" d="M245.848,140.316v8.248c0,2.498-0.479,5.014-3.512,5.014c-0.756,0-1.393-0.191-2.031-0.568l0.809-1.379
		c0.361,0.275,0.83,0.432,1.293,0.432c1.857,0,1.826-2.174,1.826-3.498v-8.248H245.848z"/>
	<polygon fill="#FFFFFF" points="250,140.316 256.977,140.316 256.977,141.799 251.619,141.799 251.619,145.432 256.822,145.432 
		256.822,146.912 251.619,146.912 251.619,151.822 256.977,151.822 256.977,153.299 250,153.299 	"/>
	<path fill="#FFFFFF" d="M264.846,140.316v8.248c0,2.498-0.482,5.014-3.516,5.014c-0.755,0-1.393-0.191-2.031-0.568l0.809-1.379
		c0.363,0.275,0.83,0.432,1.293,0.432c1.861,0,1.826-2.174,1.826-3.498v-8.248H264.846z"/>
	<path fill="#FFFFFF" d="M270.391,140.316v7.664c0,2.117,0.637,4.082,3.137,4.082c2.494,0,3.133-1.965,3.133-4.082v-7.664h1.619
		v8.217c0,2.855-1.775,5.045-4.752,5.045c-2.98,0-4.752-2.189-4.752-5.045v-8.217H270.391z"/>
	<g>
		<path fill="#FFFFFF" d="M353.426,63.487c-1.145-1.621-2.816-2.908-4.828-4.276c-6.023-4-15.191-7.955-18.881-9.281
			c-4.906-1.73-10.104-3.637-15.15-5.352c-0.67-4.175-1.896-7.149-3.199-10.269c-0.176-0.407-0.428-0.959-0.896-1.586
			c-0.236-0.309-0.531-0.643-0.984-0.974c-0.449-0.313-1.131-0.637-1.969-0.639c-0.537-0.003-1.105,0.148-1.563,0.397
			c-1.154,0.665-1.48,1.478-1.754,2.083c-0.248,0.639-0.354,1.184-0.4,1.739c-0.098,1.41-0.473,2.955-0.902,4.162
			c-0.018,0.061-0.039,0.117-0.06,0.175c-0.767-0.448-1.507-0.92-2.218-1.425c-3.834-2.689-6.203-6.971-8.814-11.68
			c-0.926-1.654-1.838-2.998-2.793-4.461c-0.424-0.652-1.006-1.555-1.738-2.449c-0.746-0.89-1.613-1.823-2.955-2.455
			c-0.432-0.203-0.94-0.324-1.449-0.322c-1.105-0.002-2.02,0.542-2.564,1.169c-0.555,0.645-0.886,1.405-0.898,2.348
			c0,0.138,0.008,0.287,0.029,0.44c0.271,2.041,0.541,3.149,0.526,4.153c0,0.363-0.026,0.741-0.099,1.214
			c-0.151,0.988-0.391,2.204-0.76,3.174c-0.357,0.999-0.855,1.608-1.117,1.732c-0.301,0.177-0.502,0.219-0.785,0.227
			c-0.523,0.019-1.479-0.333-2.494-1.053c-1.018-0.707-2.039-1.68-2.889-2.504c-2.68-2.59-4.43-6.186-5.559-10.055
			c-0.918-3.148-2.229-7.107-2.966-10.076c-0.146-0.576-0.448-1.55-0.8-2.565c-0.178-0.505-0.359-1.001-0.551-1.454
			c-0.096-0.227-0.19-0.442-0.307-0.66c-0.125-0.231-0.221-0.44-0.533-0.813c-0.383-0.463-1.209-1.045-2.219-1.032
			c-0.729-0.003-1.341,0.286-1.723,0.576c-0.588,0.452-0.84,0.901-1.039,1.323c-0.186,0.435-0.299,0.86-0.305,1.424
			c0,0.095,0.006,0.221,0.021,0.363c0.664,6.02,1.068,10.314,1.066,14.42c0,2.325-0.125,4.609-0.414,7.156
			c-0.275,2.463-0.971,5.641-1.623,8.248c-0.33,1.307-0.645,2.479-0.887,3.367c-0.242,0.876-0.404,1.434-0.479,1.711
			c-0.012,0.045-0.082,0.282-0.146,0.54c-0.072,0.312-0.168,0.654-0.178,1.25c0.014,0.318-0.002,0.742,0.342,1.435
			c0.178,0.338,0.498,0.742,0.961,1.031c0.463,0.289,1.016,0.41,1.437,0.408c0.048,0,0.146-0.001,0.261-0.011l0.041-0.004
			l0.035-0.004c1.063-0.162,1.521-0.643,1.838-0.93c0.461-0.472,0.67-0.844,0.869-1.159c0.09-0.163,0.17-0.298,0.229-0.401
			c0.029-0.053,0.055-0.096,0.07-0.125c0.018-0.028,0.023-0.032,0.023-0.032c0.609-0.972,1.15-2.148,1.502-2.757
			c0.082-0.151,0.162-0.3,0.244-0.446c0.791,4.696,2.188,9.288,3.934,13.643c1.449,3.604,3.158,7.334,5.52,10.698
			c0.354,0.504,0.664,0.911,0.846,1.187c-4.598,4.238-10.018,7.252-15.982,9.533c-1.934,0.741-3.871,1.406-5.826,1.963
			c-0.867,0.254-1.617,0.545-2.342,1.08c-0.357,0.269-0.717,0.617-1.008,1.094c-0.293,0.472-0.494,1.099-0.49,1.72
			c0,0.887,0.357,1.619,0.736,2.119c0.686,0.873,1.457,1.33,2.335,1.766c2.599,1.229,6.538,1.977,11.562,1.999
			c3.133,0,6.656-0.327,10.398-1.114c8.383-1.793,12.41-2.564,14.193-2.537c0.742,0.002,1,0.086,1.265,0.192
			c0.257,0.11,0.625,0.354,1.269,0.858c1.141,0.879,2.41,2.145,5.473,5.068c2.928,2.795,6.324,5.998,10.184,8.566
			c3.855,2.553,8.25,4.521,13.137,4.533h0.01c1.484,0,3-0.191,4.529-0.594c5.029-1.346,13.352-5.156,20.756-10.328
			c3.691-2.592,7.127-5.512,9.729-8.725c2.584-3.207,4.422-6.783,4.439-10.707C355.705,68.124,354.953,65.686,353.426,63.487z
			 M320.125,97.82c-9.936,2.629-18.749-5.467-25.455-11.883c-3.047-2.904-4.324-4.201-5.67-5.244
			c-2.916-2.264-3.42-2.25-18.809,1.011c-15.314,3.239-26.742-1.812-19.973-3.735c2.043-0.578,4.052-1.271,6.037-2.031
			c6.188-2.364,11.924-5.538,16.816-10.057c1.864-1.719,0.67-2.815-0.504-4.493c-2.186-3.116-3.83-6.665-5.242-10.191
			c-1.91-4.752-3.369-9.771-4.051-14.855c-0.064-0.467-0.227-1.886-0.267-2.136c-0.042-0.409-0.432-1.009-0.981-1.216
			c-0.445-0.161-0.928,0.351-1.162,0.678c-0.67,0.939-1.461,2.547-2.289,4.024c-0.422,0.747-0.967,1.911-1.424,2.63
			c-0.254,0.393-0.744,1.452-1.195,1.508c-0.49,0.061-0.075-1.169,0-1.455c0.197-0.744,2.459-8.369,3.063-13.709
			c0.821-7.284,0.391-12.693-0.652-22.152c-0.039-0.341,0.206-0.854,0.52-0.854c0.1,0,0.205,0.05,0.311,0.172
			c0.432,0.488,1.42,3.584,1.635,4.426c0.773,3.117,2.094,7.088,2.992,10.173c1.203,4.126,3.109,8.14,6.223,11.165
			c2.178,2.111,5.916,5.679,9.246,3.691c2.068-1.236,2.75-4.58,3.084-6.701c0.354-2.268-0.092-3.546-0.422-6.092
			c-0.076-0.597,0.545-1.343,1.309-0.988c1.486,0.68,2.768,2.67,3.623,3.986c0.973,1.484,1.836,2.764,2.701,4.31
			c2.602,4.652,5.113,9.359,9.568,12.518c1.504,1.062,3.102,1.985,4.749,2.809c0.716-0.713,2.187-4.205,2.431-7.619
			c0.037-0.545,0.295-1.487,0.82-1.764c0.881-0.465,1.598,0.898,1.864,1.543c1.473,3.524,2.683,6.457,3.243,11.195
			c5.456,1.818,11.191,3.932,16.602,5.842c4.604,1.641,19.422,8.186,22.469,12.601C360.822,78.699,330.674,95.031,320.125,97.82z"/>
	</g>
	<path fill-rule="evenodd" clip-rule="evenodd" fill="#FFFFFF" d="M319.84,65.385c-0.322,0.855-2.256,0.886-4.316,0.044
		c-2.063-0.833-3.411-2.212-3.027-3.062c0.387-0.865,2.322-0.887,4.316-0.049S320.156,64.529,319.84,65.385"/>
	<path fill-rule="evenodd" clip-rule="evenodd" fill="#FFFFFF" d="M318.77,53.877c-0.203,0.512-1.328,0.693-2.514,0.443
		c-1.201-0.27-2.002-0.886-1.787-1.38c0.221-0.502,1.361-0.706,2.549-0.448C318.201,52.749,318.984,53.377,318.77,53.877"/>
	<path fill-rule="evenodd" clip-rule="evenodd" fill="#FFFFFF" d="M329.764,58.266c-0.213,0.637-1.562,0.809-3.064,0.447
		c-1.467-0.394-2.49-1.175-2.256-1.799c0.23-0.601,1.615-0.793,3.08-0.427C328.973,56.862,329.977,57.667,329.764,58.266"/>
	<path fill-rule="evenodd" clip-rule="evenodd" fill="#FFFFFF" d="M307.939,70.873c-0.217,0.854-1.943,0.971-3.889,0.264
		c-1.939-0.717-3.305-1.998-3.035-2.869c0.266-0.872,2.021-0.987,3.904-0.262C306.803,68.723,308.154,70.01,307.939,70.873"/>
	<path fill-rule="evenodd" clip-rule="evenodd" fill="#FFFFFF" d="M307.449,58.854c-0.266,0.532-1.617,0.523-3.023-0.05
		c-1.4-0.567-2.305-1.452-2.018-1.985c0.293-0.53,1.641-0.52,3.018,0.052C306.803,57.427,307.709,58.309,307.449,58.854"/>
	<path fill-rule="evenodd" clip-rule="evenodd" fill="#FFFFFF" d="M297.482,53.172c-0.312,0.486-1.312,0.521-2.271,0.088
		c-0.947-0.424-1.451-1.17-1.135-1.639c0.322-0.47,1.343-0.502,2.271-0.07C297.275,51.973,297.791,52.695,297.482,53.172"/>
	<path fill-rule="evenodd" clip-rule="evenodd" fill="#FFFFFF" d="M290.133,47.213c-0.258,0.338-1.004,0.371-1.668,0.062
		c-0.654-0.312-0.973-0.835-0.709-1.171c0.281-0.336,1.027-0.377,1.676-0.059C290.08,46.35,290.398,46.865,290.133,47.213"/>
	<path fill-rule="evenodd" clip-rule="evenodd" fill="#FFFFFF" d="M307.084,50.176c-0.238,0.462-1.266,0.617-2.268,0.355
		c-1.01-0.264-1.623-0.846-1.367-1.299c0.258-0.463,1.281-0.614,2.283-0.357C306.729,49.133,307.334,49.717,307.084,50.176"/>
	<path fill-rule="evenodd" clip-rule="evenodd" fill="#FFFFFF" d="M296.172,64.26c-0.283,0.521-1.65,0.369-3.041-0.366
		c-1.398-0.728-2.26-1.744-1.945-2.275c0.314-0.525,1.664-0.357,3.023,0.365C295.563,62.702,296.443,63.722,296.172,64.26"/>
	<path fill-rule="evenodd" clip-rule="evenodd" fill="#FFFFFF" d="M297.965,75.441c-0.119,0.676-1.557,0.746-3.217,0.125
		c-1.652-0.609-2.867-1.676-2.707-2.364c0.16-0.69,1.604-0.751,3.217-0.124C296.873,73.697,298.08,74.752,297.965,75.441"/>
	<path fill-rule="evenodd" clip-rule="evenodd" fill="#FFFFFF" d="M286.65,57.068c-0.264,0.345-1.084,0.227-1.816-0.265
		c-0.732-0.489-1.09-1.165-0.803-1.506c0.285-0.34,1.094-0.221,1.805,0.263C286.555,56.051,286.914,56.732,286.65,57.068"/>
	<path fill-rule="evenodd" clip-rule="evenodd" fill="#FFFFFF" d="M281.422,51.932c-0.223,0.254-0.809,0.168-1.307-0.186
		c-0.492-0.351-0.711-0.837-0.477-1.093c0.234-0.244,0.805-0.151,1.299,0.203C281.424,51.208,281.643,51.698,281.422,51.932"/>
	<path fill-rule="evenodd" clip-rule="evenodd" fill="#FFFFFF" d="M286.875,69.463c-0.234,0.418-1.25,0.248-2.277-0.352
		c-1.029-0.607-1.648-1.439-1.4-1.853c0.254-0.422,1.266-0.259,2.27,0.348C286.471,68.215,287.1,69.059,286.875,69.463"/>
	<path fill-rule="evenodd" clip-rule="evenodd" fill="#FFFFFF" d="M279.875,62.529c-0.232,0.305-0.924,0.186-1.547-0.256
		c-0.625-0.444-0.941-1.056-0.703-1.359c0.238-0.293,0.936-0.174,1.543,0.27C279.787,61.619,280.104,62.221,279.875,62.529"/>
	<path fill="#FFFFFF" d="M350.037,64.055c0.104,0.11,0.207,0.215,0.301,0.324C350.244,64.27,350.141,64.168,350.037,64.055"/>
	<path fill="#FFFFFF" d="M312.021,92.414c0.023-1.443,1.387-2.598,3.051-2.576c1.67,0.014,2.986,1.203,2.961,2.646
		c-0.018,1.431-1.377,2.58-3.043,2.57C313.32,95.031,311.994,93.857,312.021,92.414"/>
	<path fill="#FFFFFF" d="M346.598,68.979c-0.078-1.062,0.816-1.986,1.994-2.082c1.194-0.086,2.207,0.691,2.279,1.748
		c0.068,1.058-0.82,1.988-2.003,2.082C347.689,70.813,346.664,70.032,346.598,68.979"/>
	<polygon fill="#FFFFFF" points="63.849,85.816 61.832,85.816 61.832,77.813 52.228,77.813 52.228,85.816 50.219,85.816 
		50.219,70.422 52.228,70.422 52.228,75.487 61.832,75.487 61.832,70.422 63.849,70.422 	"/>
	<path fill="#FFFFFF" d="M140.783,80.188h-3.508c-0.758,0-1.317,0.085-1.684,0.253c-0.609,0.278-0.914,0.818-0.914,1.611
		c0.009,0.75,0.299,1.237,0.871,1.475c0.328,0.145,0.895,0.218,1.695,0.218h2.915c1.003,0,1.726-0.162,2.158-0.485
		c0.396-0.302,0.597-0.787,0.597-1.46C142.867,80.713,142.154,80.179,140.783,80.188 M133.805,74.163h6.562
		c1.853,0,3.169,0.561,3.955,1.681c1.019,1.429,0.736,3.417,0.736,5.061v1.687c0,0.858-0.244,1.668-0.691,2.266
		c-0.43,0.578-1.057,0.96-1.833,0.96c-0.689,0.002-1.373,0-2.056,0h-3.362c-1.539,0-2.617-0.203-3.236-0.615
		c-0.855-0.563-1.283-1.66-1.283-3.289c0.022-1.524,0.502-2.572,1.371-3.123c0.633-0.401,1.69-0.597,3.164-0.597
		c0,0,5.717,0.034,5.717,0c0-0.58-0.147-1.263-0.734-1.593c-0.571-0.323-1.278-0.379-1.916-0.379h-6.452L133.805,74.163z"/>
	<path fill="#FFFFFF" d="M88.504,74.236c1.474,0,2.625,0.442,3.447,1.329c0.827,0.893,1.237,1.786,1.237,3.481v6.77h-2.014v-6.779
		c0-0.973-0.262-1.345-0.787-1.891c-0.521-0.547-1.219-0.821-2.082-0.821H86.46c-0.867,0-1.564,0.274-2.084,0.821
		c-0.527,0.546-0.792,0.918-0.792,1.891v6.779h-2.007v-6.77c0-1.695,0.406-2.588,1.233-3.481c0.823-0.887,1.976-1.329,3.451-1.329
		H88.504z"/>
	<path fill="#FFFFFF" d="M113.873,74.236v6.576c0,0.979-0.26,1.345-0.786,1.889c-0.526,0.549-1.217,0.824-2.087,0.824h-1.254
		c-0.861,0-1.559-0.275-2.08-0.824c-0.525-0.544-0.787-0.91-0.787-1.889v-6.576h-2.113v6.576c0,0.979-0.261,1.345-0.784,1.889
		c-0.527,0.549-1.221,0.824-2.086,0.824h-1.252c-0.861,0-1.561-0.275-2.082-0.824c-0.526-0.544-0.787-0.91-0.787-1.889v-6.576
		h-2.016v6.766c0,1.696,0.411,2.59,1.237,3.482c0.823,0.891,1.975,1.332,3.449,1.332h1.65c1.477,0,2.63-0.441,3.45-1.332
		c0.099-0.107,0.191-0.217,0.281-0.318c0.084,0.102,0.178,0.211,0.274,0.318c0.826,0.891,1.976,1.332,3.449,1.332h1.65
		c1.479,0,2.629-0.441,3.451-1.332c0.827-0.893,1.239-1.786,1.239-3.482v-6.766H113.873z"/>
	<path fill="#FFFFFF" d="M128.933,75.565c-0.824-0.887-1.975-1.329-3.451-1.329h-2.24c-1.077,0-1.973,0.235-2.704,0.705v-4.62
		h-2.023v15.495h2.055v-6.779c0-0.973,0.261-1.345,0.783-1.891c0.525-0.547,1.217-0.821,2.084-0.821h1.846
		c0.867,0,1.562,0.274,2.088,0.821c0.519,0.546,0.783,0.918,0.783,1.891v6.779h2.019v-6.77
		C130.173,77.352,129.757,76.458,128.933,75.565"/>
	<path fill="#FFFFFF" d="M74.774,80.188h-3.513c-0.752,0-1.313,0.085-1.681,0.253c-0.606,0.278-0.912,0.818-0.912,1.611
		c0.013,0.75,0.301,1.237,0.869,1.475c0.329,0.145,0.896,0.218,1.697,0.218h2.915c1.005,0,1.725-0.162,2.161-0.485
		c0.398-0.302,0.597-0.787,0.597-1.46C76.858,80.713,76.146,80.179,74.774,80.188 M67.794,74.163h6.564
		c1.852,0,3.172,0.561,3.954,1.681c1.019,1.429,0.737,3.417,0.734,5.061v1.687c0,0.858-0.238,1.668-0.688,2.266
		c-0.427,0.578-1.053,0.96-1.838,0.96c-0.682,0.002-1.366,0-2.051,0h-3.362c-1.541,0-2.616-0.203-3.234-0.615
		c-0.856-0.563-1.282-1.66-1.282-3.289c0.019-1.524,0.495-2.572,1.37-3.123c0.634-0.401,1.687-0.597,3.163-0.597
		c0,0,5.719,0.034,5.719,0c0-0.58-0.151-1.263-0.739-1.593c-0.57-0.323-1.273-0.379-1.914-0.379h-6.452L67.794,74.163z"/>
	<path fill="#F6BA81" d="M17.285,78.242c-0.555-5.057,4.74-9.11,11.829-9.056c7.089,0.055,13.287,4.193,13.841,9.245
		c0.556,5.055-4.737,9.105-11.827,9.048C24.043,87.429,17.84,83.289,17.285,78.242 M44.274,79.808
		c-0.64-6.266-7.772-11.398-15.934-11.469c-8.159-0.062-14.252,4.961-13.612,11.224c0.639,6.266,7.774,11.399,15.931,11.467
		C38.818,91.094,44.917,86.074,44.274,79.808"/>
	<path fill="#F39E50" d="M31.956,91.152c-4.017,4.205-10.468,4.553-14.404,0.783c-3.938-3.769-3.871-10.229,0.149-14.429
		c4.019-4.195,10.471-4.546,14.406-0.775C36.044,80.502,35.979,86.958,31.956,91.152 M17.069,77.375
		c-4.671,4.879-4.747,12.387-0.171,16.77c4.574,4.379,12.072,3.975,16.742-0.908c4.674-4.877,4.755-12.385,0.174-16.766
		C29.241,72.091,21.741,72.493,17.069,77.375"/>
	<path fill="#EC7000" d="M17.497,61.661c8.357-3.132,16.622,0.036,18.459,7.077c1.837,7.041-3.451,15.292-11.805,18.42
		c-8.358,3.135-16.625-0.035-18.461-7.076C3.853,73.042,9.14,64.793,17.497,61.661 M9.734,64.352
		C1.063,71.216-1.145,81.166,4.802,86.57c5.948,5.405,17.8,4.219,26.471-2.646c8.671-6.863,10.881-16.812,4.931-22.215
		C30.254,56.305,18.404,57.486,9.734,64.352"/>
</g>
</svg>
