<?xml version="1.0" encoding="utf-8"?>
<!-- Generator: Adobe Illustrator 14.0.0, SVG Export Plug-In . SVG Version: 6.00 Build 43363)  -->
<!DOCTYPE svg PUBLIC "-//W3C//DTD SVG 1.1//EN" "http://www.w3.org/Graphics/SVG/1.1/DTD/svg11.dtd">
<svg version="1.1" id="Layer_1" xmlns="http://www.w3.org/2000/svg" xmlns:xlink="http://www.w3.org/1999/xlink" x="0px" y="0px"
	 width="400px" height="200px" viewBox="0 0 400 200" enable-background="new 0 0 400 200" xml:space="preserve">
<g>
	<defs>
		<rect id="SVGID_1_" x="-124.046" y="-209.166" width="595.275" height="841.89"/>
	</defs>
	<clipPath id="SVGID_2_">
		<use xlink:href="#SVGID_1_"  overflow="visible"/>
	</clipPath>
	<path clip-path="url(#SVGID_2_)" fill="#002F75" d="M265.015,536.452c0.006-0.525,0.504-0.947,1.111-0.938
		c0.609,0.004,1.09,0.438,1.076,0.963c-0.004,0.521-0.5,0.939-1.105,0.938C265.487,537.405,265.003,536.978,265.015,536.452"/>
	<path clip-path="url(#SVGID_2_)" fill="#002F75" d="M277.62,527.907c-0.027-0.387,0.297-0.723,0.727-0.758
		c0.436-0.033,0.805,0.252,0.832,0.635c0.025,0.387-0.299,0.727-0.73,0.76C278.018,528.577,277.646,528.29,277.62,527.907"/>
	<path clip-path="url(#SVGID_2_)" fill-rule="evenodd" clip-rule="evenodd" fill="#FFFFFF" d="M267.864,526.597
		c-0.117,0.314-0.822,0.324-1.576,0.016c-0.75-0.303-1.242-0.805-1.102-1.115c0.143-0.316,0.848-0.324,1.574-0.018
		C267.485,525.785,267.979,526.285,267.864,526.597"/>
	<path clip-path="url(#SVGID_2_)" fill-rule="evenodd" clip-rule="evenodd" fill="#FFFFFF" d="M267.474,522.401
		c-0.072,0.188-0.482,0.252-0.918,0.162c-0.437-0.1-0.729-0.324-0.65-0.504c0.082-0.184,0.496-0.258,0.93-0.162
		C267.265,521.989,267.552,522.22,267.474,522.401"/>
	<path clip-path="url(#SVGID_2_)" fill-rule="evenodd" clip-rule="evenodd" fill="#FFFFFF" d="M271.483,524.001
		c-0.08,0.232-0.572,0.295-1.117,0.162c-0.537-0.141-0.908-0.428-0.826-0.654c0.086-0.221,0.589-0.289,1.127-0.156
		C271.194,523.489,271.56,523.784,271.483,524.001"/>
	<path clip-path="url(#SVGID_2_)" fill-rule="evenodd" clip-rule="evenodd" fill="#FFFFFF" d="M263.522,528.597
		c-0.076,0.313-0.707,0.355-1.418,0.098c-0.703-0.262-1.201-0.729-1.103-1.045c0.097-0.318,0.735-0.361,1.423-0.096
		C263.11,527.815,263.603,528.284,263.522,528.597"/>
	<path clip-path="url(#SVGID_2_)" fill-rule="evenodd" clip-rule="evenodd" fill="#FFFFFF" d="M263.347,524.216
		c-0.098,0.193-0.592,0.189-1.102-0.02c-0.512-0.207-0.842-0.527-0.736-0.723c0.108-0.193,0.596-0.189,1.1,0.02
		C263.11,523.694,263.442,524.019,263.347,524.216"/>
	<path clip-path="url(#SVGID_2_)" fill-rule="evenodd" clip-rule="evenodd" fill="#FFFFFF" d="M259.71,522.144
		c-0.111,0.178-0.475,0.188-0.826,0.033c-0.346-0.154-0.528-0.43-0.414-0.598c0.117-0.172,0.49-0.184,0.828-0.025
		C259.638,521.706,259.823,521.97,259.71,522.144"/>
	<path clip-path="url(#SVGID_2_)" fill-rule="evenodd" clip-rule="evenodd" fill="#FFFFFF" d="M257.034,519.972
		c-0.098,0.123-0.367,0.135-0.609,0.023c-0.238-0.115-0.357-0.307-0.26-0.43c0.104-0.121,0.375-0.135,0.611-0.02
		C257.015,519.655,257.13,519.845,257.034,519.972"/>
	<path clip-path="url(#SVGID_2_)" fill-rule="evenodd" clip-rule="evenodd" fill="#FFFFFF" d="M263.212,521.052
		c-0.086,0.17-0.463,0.225-0.826,0.131c-0.365-0.098-0.592-0.311-0.498-0.475c0.094-0.17,0.467-0.225,0.832-0.129
		C263.085,520.671,263.304,520.884,263.212,521.052"/>
	<path clip-path="url(#SVGID_2_)" fill-rule="evenodd" clip-rule="evenodd" fill="#FFFFFF" d="M259.235,526.187
		c-0.104,0.189-0.604,0.137-1.109-0.133c-0.512-0.266-0.828-0.637-0.709-0.83c0.113-0.191,0.604-0.129,1.102,0.133
		C259.013,525.618,259.333,525.991,259.235,526.187"/>
	<path clip-path="url(#SVGID_2_)" fill-rule="evenodd" clip-rule="evenodd" fill="#FFFFFF" d="M259.89,530.263
		c-0.043,0.248-0.57,0.273-1.174,0.047c-0.602-0.223-1.047-0.611-0.986-0.861c0.056-0.252,0.582-0.273,1.172-0.047
		S259.931,530.015,259.89,530.263"/>
	<path clip-path="url(#SVGID_2_)" fill-rule="evenodd" clip-rule="evenodd" fill="#FFFFFF" d="M255.761,523.563
		c-0.092,0.127-0.396,0.082-0.662-0.096s-0.396-0.424-0.289-0.549c0.102-0.125,0.398-0.08,0.656,0.098
		C255.728,523.194,255.858,523.442,255.761,523.563"/>
	<path clip-path="url(#SVGID_2_)" fill-rule="evenodd" clip-rule="evenodd" fill="#FFFFFF" d="M253.856,521.69
		c-0.082,0.096-0.295,0.062-0.478-0.066c-0.179-0.129-0.259-0.305-0.171-0.398c0.084-0.09,0.293-0.057,0.471,0.074
		C253.856,521.429,253.935,521.606,253.856,521.69"/>
	<path clip-path="url(#SVGID_2_)" fill-rule="evenodd" clip-rule="evenodd" fill="#FFFFFF" d="M255.845,528.083
		c-0.086,0.154-0.455,0.092-0.83-0.127c-0.373-0.221-0.602-0.525-0.512-0.676c0.092-0.154,0.463-0.096,0.828,0.127
		C255.698,527.628,255.927,527.938,255.845,528.083"/>
	<path clip-path="url(#SVGID_2_)" fill-rule="evenodd" clip-rule="evenodd" fill="#FFFFFF" d="M253.292,525.558
		c-0.084,0.109-0.338,0.066-0.562-0.096c-0.229-0.16-0.345-0.385-0.259-0.496c0.086-0.105,0.34-0.063,0.563,0.1
		C253.261,525.224,253.376,525.442,253.292,525.558"/>
	<path clip-path="url(#SVGID_2_)" fill="#FFFFFF" d="M278.876,526.112c0.035,0.039,0.074,0.078,0.107,0.117
		C278.95,526.19,278.911,526.153,278.876,526.112"/>
	<path clip-path="url(#SVGID_2_)" fill="#002F75" d="M211.483,118.891c-0.926,0-1.682,0.756-1.682,1.689v29.182
		c0,0.935,0.756,1.686,1.682,1.686c0.928,0,1.688-0.751,1.688-1.686v-29.192C213.171,119.646,212.411,118.891,211.483,118.891
		 M194.403,127.328c-1.572,0-5.383,0.391-8.178,3.842v-2.988c0-0.92-0.756-1.68-1.686-1.68c-0.926,0-1.684,0.76-1.684,1.68v29.154
		c0,0.94,0.754,1.692,1.682,1.692c0.932,0,1.688-0.752,1.688-1.692v-10.547c2.822,3.504,6.932,3.789,8.178,3.789
		c6.676,0,11.898-5.119,11.898-11.666C206.302,133.221,201.853,127.328,194.403,127.328 M194.403,147.496
		c-4.674,0-8.338-3.734-8.338-8.496c0-4.736,3.736-8.582,8.338-8.582c4.246,0,8.537,2.959,8.537,8.613
		C202.94,143.86,199.269,147.496,194.403,147.496 M254.403,127.328c-3.002,0-5.178,1.352-6.403,2.805v-1.951
		c0-0.92-0.75-1.68-1.683-1.68c-0.926,0-1.684,0.76-1.684,1.68c0,0.015,0,0.027,0.008,0.035v21.512
		c-0.008,0.012-0.008,0.023-0.008,0.033c0,0.935,0.758,1.686,1.684,1.686c0.933,0,1.683-0.751,1.683-1.686v-11.871
		c-0.03-2.447,0.649-4.475,1.931-5.703c1.68-1.643,3.852-1.77,4.473-1.77c0.631,0,2.809,0.127,4.49,1.774
		c1.266,1.214,1.959,3.241,1.959,5.698v11.871c0,0.935,0.752,1.686,1.682,1.686s1.684-0.751,1.684-1.686v-11.871
		c0-3.35-0.951-6.061-2.77-7.828C259.554,128.17,257.386,127.328,254.403,127.328 M305.112,127.881h-4.879v-7.312
		c0-0.923-0.752-1.679-1.682-1.679c-0.927,0-1.684,0.756-1.684,1.679v0.026v7.285h-4.234c-0.852,0-1.543,0.691-1.543,1.547
		c0,0.852,0.691,1.547,1.543,1.547h0.049h4.186v18.554v0.034v0.033v0.166c0,0.068,0.035,0.125,0.072,0.172
		c0.178,0.77,0.842,1.307,1.611,1.307s1.424-0.529,1.611-1.279c0.043-0.049,0.07-0.119,0.07-0.199v-18.787h4.834h0.045
		c0.842,0,1.537-0.695,1.537-1.547C306.649,128.572,305.954,127.881,305.112,127.881 M279.142,127.328
		c-6.342,0.125-11.5,5.354-11.5,11.672c0,6.391,5.176,11.578,11.547,11.578c4.48,0,8.602-2.666,10.49-6.771
		c0.008-0.014,0.023-0.069,0.033-0.086c0.422-1.233-0.253-1.967-1.025-2.233c-0.162-0.06-0.338-0.089-0.512-0.089
		c-0.725,0-1.361,0.488-1.578,1.205c-0.813,2.203-3.248,4.807-7.451,4.893c-4.004,0-7.676-3.336-8.041-7.215h19.318
		c0.164,0,0.295-0.121,0.307-0.285c0.145-2.605-0.428-4.967-1.695-6.994C287.476,130.293,284.06,127.375,279.142,127.328
		 M271.142,137.196c0.885-4.653,4.756-6.778,8.047-6.778c3.252,0,7.113,2.125,8.07,6.778H271.142z M238.552,126.502
		c-0.93,0-1.686,0.76-1.686,1.68v0.029v2.916c-2.604-3.408-6.535-3.799-8.18-3.799c-7.451,0-11.902,5.893-11.902,11.584
		c0,6.547,5.234,11.666,11.902,11.666c1.617,0,5.508-0.382,8.18-3.785v2.947v0.014c0,0.942,0.756,1.693,1.686,1.693
		c0.926,0,1.682-0.751,1.682-1.686v-21.58C240.233,127.262,239.478,126.502,238.552,126.502 M228.687,147.496
		c-4.949,0-8.537-3.557-8.537-8.465c0-5.654,4.297-8.613,8.537-8.613c4.598,0,8.344,3.846,8.344,8.582
		C237.03,143.762,233.362,147.496,228.687,147.496"/>
	<path clip-path="url(#SVGID_2_)" fill="#002F75" d="M90.032,128.199c0-0.938-0.757-1.688-1.684-1.688
		c-0.927,0-1.682,0.75-1.682,1.688v2.943c-2.608-3.414-6.545-3.801-8.183-3.801c-7.45,0-11.897,5.889-11.897,11.586
		c0,6.541,5.226,11.662,11.897,11.662c1.616,0,5.504-0.391,8.183-3.783v2.963c0,0.939,0.755,1.689,1.682,1.689
		c0.927,0,1.684-0.75,1.684-1.689c0-0.006-0.003-0.018-0.003-0.029v-21.51C90.029,128.217,90.032,128.209,90.032,128.199
		 M78.483,147.502c-4.946,0-8.534-3.559-8.534-8.465c0-5.65,4.29-8.609,8.534-8.609c4.595,0,8.333,3.851,8.333,8.584
		C86.816,143.776,83.16,147.502,78.483,147.502 M115.097,126.512c-0.927,0-1.684,0.75-1.684,1.688c0,0.01,0.001,0.021,0.001,0.036
		v2.916c-2.625-3.423-6.549-3.81-8.182-3.81c-7.449,0-11.902,5.889-11.902,11.586c0,6.541,5.228,11.662,11.902,11.662
		c1.627,0,5.534-0.391,8.182-3.771v10.5c0,0-0.001,0.017-0.001,0.03c0,0.929,0.757,1.686,1.684,1.686c0.926,0,1.68-0.757,1.68-1.686
		v-29.15C116.777,127.262,116.023,126.512,115.097,126.512 M105.232,147.502c-4.867,0-8.537-3.639-8.537-8.465
		c0-5.65,4.289-8.609,8.537-8.609c4.602,0,8.341,3.851,8.341,8.584C113.573,143.776,109.908,147.502,105.232,147.502
		 M166.187,126.512c-0.934,0-1.686,0.75-1.686,1.688v2.938c-2.603-3.408-6.537-3.795-8.18-3.795c-7.449,0-11.9,5.889-11.9,11.586
		c0,6.541,5.229,11.662,11.9,11.662c1.614,0,5.503-0.391,8.18-3.783v2.963c0,0.939,0.752,1.689,1.686,1.689
		c0.927,0,1.683-0.75,1.683-1.689v-21.57C167.869,127.262,167.113,126.512,166.187,126.512 M156.32,147.502
		c-4.945,0-8.537-3.559-8.537-8.465c0-5.65,4.299-8.609,8.537-8.609c4.596,0,8.336,3.851,8.336,8.584
		C164.656,143.776,160.999,147.502,156.32,147.502 M139.047,126.512c-0.934,0-1.686,0.75-1.686,1.688v0.041v11.354
		c0,3.779-1.023,5.117-2.162,6.26c-1.107,1.111-2.537,1.648-4.365,1.648c-2.025,0-3.641-0.656-4.773-1.939
		c-0.994-1.234-1.472-3.031-1.472-5.491v-11.872c0-0.938-0.755-1.688-1.684-1.688c-0.925,0-1.679,0.75-1.679,1.688
		c0,0.01,0.002,0.012,0.002,0.021v11.89c0,3.134,0.659,5.536,1.959,7.13c1,1.25,3.326,3.35,7.647,3.35
		c3.828,0,5.797-1.934,6.686-3.203v2.383c0,0.891,0.72,1.605,1.601,1.605c0.885,0,1.605-0.715,1.605-1.605v-21.57
		C140.727,127.262,139.969,126.512,139.047,126.512"/>
	<path clip-path="url(#SVGID_2_)" fill="#002F75" d="M267.802,166.041v8.248c0,2.498-0.479,5.014-3.512,5.014
		c-0.756,0-1.393-0.191-2.031-0.568l0.809-1.379c0.361,0.275,0.83,0.432,1.293,0.432c1.857,0,1.826-2.174,1.826-3.498v-8.248
		H267.802z"/>
	<polygon clip-path="url(#SVGID_2_)" fill="#002F75" points="271.954,166.041 278.931,166.041 278.931,167.523 273.573,167.523 
		273.573,171.156 278.776,171.156 278.776,172.637 273.573,172.637 273.573,177.547 278.931,177.547 278.931,179.023 
		271.954,179.023 	"/>
	<path clip-path="url(#SVGID_2_)" fill="#002F75" d="M286.8,166.041v8.248c0,2.498-0.482,5.014-3.516,5.014
		c-0.755,0-1.393-0.191-2.031-0.568l0.809-1.379c0.363,0.275,0.83,0.432,1.293,0.432c1.861,0,1.826-2.174,1.826-3.498v-8.248H286.8z
		"/>
	<path clip-path="url(#SVGID_2_)" fill="#002F75" d="M292.345,166.041v7.664c0,2.117,0.637,4.082,3.137,4.082
		c2.494,0,3.133-1.965,3.133-4.082v-7.664h1.619v8.217c0,2.855-1.775,5.045-4.752,5.045c-2.98,0-4.752-2.189-4.752-5.045v-8.217
		H292.345z"/>
	<path clip-path="url(#SVGID_2_)" fill="#002F75" d="M338.188,126.596c-4.887-0.012-9.281-1.98-13.137-4.533
		c-3.859-2.568-7.256-5.771-10.184-8.566c-3.063-2.924-4.332-4.189-5.473-5.068c-0.644-0.504-1.012-0.748-1.269-0.858
		c-0.265-0.106-0.522-0.19-1.265-0.192c-1.783-0.027-5.811,0.744-14.193,2.537c-3.742,0.787-7.266,1.114-10.398,1.114
		c-5.023-0.022-8.963-0.771-11.562-1.999c-0.878-0.436-1.649-0.893-2.335-1.766c-0.379-0.5-0.736-1.232-0.736-2.119
		c-0.004-0.621,0.197-1.248,0.49-1.721c0.291-0.477,0.65-0.824,1.008-1.094c0.725-0.535,1.475-0.826,2.342-1.08
		c1.955-0.557,3.893-1.222,5.826-1.963c5.965-2.281,11.385-5.295,15.982-9.533c-0.182-0.276-0.492-0.683-0.846-1.187
		c-2.361-3.364-4.07-7.094-5.52-10.698c-1.746-4.355-3.143-8.947-3.934-13.643c-0.082,0.146-0.162,0.295-0.244,0.446
		c-0.352,0.609-0.893,1.785-1.502,2.757c0,0-0.006,0.004-0.023,0.032c-0.016,0.029-0.041,0.072-0.07,0.125
		c-0.059,0.103-0.139,0.238-0.229,0.401c-0.199,0.315-0.408,0.687-0.869,1.159c-0.316,0.287-0.775,0.768-1.838,0.93l-0.035,0.004
		l-0.041,0.004c-0.115,0.01-0.213,0.011-0.261,0.011c-0.421,0.002-0.974-0.119-1.437-0.408c-0.463-0.289-0.783-0.693-0.961-1.031
		c-0.344-0.693-0.328-1.117-0.342-1.435c0.01-0.596,0.105-0.938,0.178-1.25c0.064-0.258,0.135-0.495,0.146-0.54
		c0.074-0.277,0.236-0.835,0.479-1.711c0.242-0.888,0.557-2.06,0.887-3.367c0.652-2.607,1.348-5.785,1.623-8.248
		c0.289-2.547,0.414-4.831,0.414-7.156c0.002-4.106-0.402-8.4-1.066-14.42c-0.016-0.142-0.021-0.268-0.021-0.363
		c0.006-0.564,0.119-0.989,0.305-1.424c0.199-0.422,0.451-0.871,1.039-1.323c0.382-0.29,0.994-0.579,1.723-0.576
		c1.01-0.013,1.836,0.569,2.219,1.032c0.313,0.373,0.408,0.582,0.533,0.813c0.116,0.218,0.211,0.433,0.307,0.66
		c0.191,0.453,0.373,0.949,0.551,1.454c0.352,1.015,0.654,1.989,0.8,2.565c0.737,2.969,2.048,6.928,2.966,10.076
		c1.129,3.869,2.879,7.465,5.559,10.055c0.85,0.824,1.871,1.797,2.889,2.504c1.016,0.72,1.971,1.072,2.494,1.053
		c0.283-0.008,0.484-0.05,0.785-0.227c0.262-0.124,0.76-0.733,1.117-1.732c0.369-0.97,0.608-2.186,0.76-3.174
		c0.072-0.473,0.099-0.851,0.099-1.214c0.015-1.004-0.255-2.112-0.526-4.153c-0.021-0.153-0.029-0.302-0.029-0.44
		c0.013-0.943,0.344-1.703,0.898-2.348c0.545-0.627,1.459-1.171,2.564-1.169c0.509-0.002,1.018,0.119,1.449,0.322
		c1.342,0.632,2.209,1.565,2.955,2.455c0.732,0.894,1.314,1.797,1.738,2.449c0.955,1.463,1.867,2.807,2.793,4.461
		c2.611,4.709,4.98,8.991,8.814,11.68c0.711,0.505,1.451,0.977,2.218,1.425c0.021-0.058,0.042-0.114,0.06-0.175
		c0.43-1.207,0.805-2.752,0.902-4.162c0.047-0.555,0.152-1.1,0.4-1.739c0.273-0.605,0.6-1.418,1.754-2.083
		c0.457-0.249,1.025-0.4,1.563-0.397c0.838,0.002,1.52,0.326,1.969,0.639c0.453,0.331,0.748,0.665,0.984,0.974
		c0.469,0.627,0.721,1.179,0.896,1.586c1.303,3.12,2.529,6.094,3.199,10.269c5.047,1.715,10.244,3.622,15.15,5.352
		c3.689,1.326,12.857,5.281,18.881,9.281c2.012,1.368,3.684,2.655,4.828,4.276c1.527,2.199,2.279,4.637,2.271,7.031
		c-0.018,3.924-1.855,7.5-4.439,10.707c-2.602,3.213-6.037,6.133-9.729,8.725c-7.404,5.172-15.727,8.982-20.756,10.328
		c-1.529,0.402-3.045,0.594-4.529,0.594H338.188z"/>
	
		<radialGradient id="SVGID_3_" cx="-97.4028" cy="522.5508" r="0.9989" gradientTransform="matrix(100.8194 0 0 100.8194 10127.0508 -52626.4453)" gradientUnits="userSpaceOnUse">
		<stop  offset="0" style="stop-color:#FFFFFF"/>
		<stop  offset="0.35" style="stop-color:#AFDDEE"/>
		<stop  offset="0.7" style="stop-color:#00AACE"/>
		<stop  offset="1" style="stop-color:#00AACE"/>
	</radialGradient>
	<path clip-path="url(#SVGID_2_)" fill="url(#SVGID_3_)" d="M280.321,30.239c1.043,9.459,1.474,14.868,0.652,22.152
		c-0.604,5.34-2.865,12.965-3.063,13.709c-0.075,0.286-0.49,1.516,0,1.455c0.451-0.056,0.941-1.115,1.195-1.508
		c0.457-0.719,1.002-1.883,1.424-2.63c0.828-1.477,1.619-3.085,2.289-4.024c0.234-0.327,0.717-0.839,1.162-0.678
		c0.55,0.207,0.939,0.807,0.981,1.216c0.04,0.25,0.202,1.669,0.267,2.136c0.682,5.085,2.141,10.103,4.051,14.855
		c1.412,3.526,3.057,7.075,5.242,10.191c1.174,1.678,2.368,2.774,0.504,4.493c-4.893,4.519-10.629,7.693-16.816,10.057
		c-1.985,0.761-3.994,1.453-6.037,2.031c-6.77,1.924,4.658,6.975,19.973,3.735c15.389-3.261,15.893-3.274,18.809-1.011
		c1.346,1.043,2.623,2.34,5.67,5.244c6.706,6.416,15.52,14.512,25.455,11.883c10.549-2.789,40.697-19.121,31.209-32.894
		c-3.047-4.415-17.864-10.96-22.469-12.601c-5.41-1.91-11.146-4.024-16.602-5.842c-0.561-4.738-1.771-7.671-3.243-11.195
		c-0.267-0.645-0.983-2.008-1.864-1.543c-0.525,0.277-0.783,1.219-0.82,1.764c-0.244,3.414-1.715,6.906-2.431,7.619
		c-1.647-0.824-3.245-1.747-4.749-2.809c-4.455-3.159-6.967-7.866-9.568-12.518c-0.865-1.546-1.729-2.826-2.701-4.31
		c-0.855-1.316-2.137-3.306-3.623-3.986c-0.764-0.355-1.385,0.391-1.309,0.988c0.33,2.546,0.775,3.824,0.422,6.092
		c-0.334,2.121-1.016,5.465-3.084,6.701c-3.33,1.988-7.068-1.58-9.246-3.691c-3.113-3.025-5.02-7.039-6.223-11.165
		c-0.898-3.085-2.219-7.056-2.992-10.173c-0.215-0.842-1.203-3.938-1.635-4.426c-0.105-0.122-0.211-0.172-0.311-0.172
		C280.527,29.385,280.282,29.897,280.321,30.239z"/>
	<path clip-path="url(#SVGID_2_)" fill-rule="evenodd" clip-rule="evenodd" fill="#FFFFFF" d="M341.794,91.11
		c-0.322,0.855-2.256,0.886-4.316,0.044c-2.063-0.833-3.411-2.212-3.027-3.062c0.387-0.865,2.322-0.887,4.316-0.049
		S342.11,90.254,341.794,91.11"/>
	<path clip-path="url(#SVGID_2_)" fill-rule="evenodd" clip-rule="evenodd" fill="#FFFFFF" d="M340.724,79.602
		c-0.203,0.512-1.328,0.693-2.514,0.443c-1.201-0.27-2.002-0.886-1.787-1.38c0.221-0.502,1.361-0.706,2.549-0.448
		C340.155,78.474,340.938,79.102,340.724,79.602"/>
	<path clip-path="url(#SVGID_2_)" fill-rule="evenodd" clip-rule="evenodd" fill="#FFFFFF" d="M351.718,83.99
		c-0.213,0.637-1.562,0.809-3.064,0.447c-1.467-0.394-2.49-1.175-2.256-1.799c0.23-0.601,1.615-0.793,3.08-0.427
		C350.927,82.586,351.931,83.392,351.718,83.99"/>
	<path clip-path="url(#SVGID_2_)" fill-rule="evenodd" clip-rule="evenodd" fill="#FFFFFF" d="M329.894,96.598
		c-0.217,0.854-1.943,0.971-3.889,0.264c-1.939-0.717-3.305-1.998-3.035-2.869c0.266-0.872,2.021-0.987,3.904-0.262
		C328.757,94.448,330.108,95.734,329.894,96.598"/>
	<path clip-path="url(#SVGID_2_)" fill-rule="evenodd" clip-rule="evenodd" fill="#FFFFFF" d="M329.403,84.578
		c-0.266,0.532-1.617,0.523-3.023-0.05c-1.4-0.567-2.305-1.452-2.018-1.985c0.293-0.53,1.641-0.52,3.018,0.052
		C328.757,83.151,329.663,84.033,329.403,84.578"/>
	<path clip-path="url(#SVGID_2_)" fill-rule="evenodd" clip-rule="evenodd" fill="#FFFFFF" d="M319.437,78.896
		c-0.312,0.486-1.312,0.521-2.271,0.088c-0.947-0.424-1.451-1.17-1.135-1.639c0.322-0.47,1.343-0.502,2.271-0.07
		C319.229,77.697,319.745,78.419,319.437,78.896"/>
	<path clip-path="url(#SVGID_2_)" fill-rule="evenodd" clip-rule="evenodd" fill="#FFFFFF" d="M312.087,72.938
		c-0.258,0.338-1.004,0.371-1.668,0.062c-0.654-0.312-0.973-0.835-0.709-1.171c0.281-0.336,1.027-0.377,1.676-0.059
		C312.034,72.075,312.353,72.589,312.087,72.938"/>
	<path clip-path="url(#SVGID_2_)" fill-rule="evenodd" clip-rule="evenodd" fill="#FFFFFF" d="M329.038,75.901
		c-0.238,0.462-1.266,0.617-2.268,0.355c-1.01-0.264-1.623-0.846-1.367-1.299c0.258-0.463,1.281-0.614,2.283-0.357
		C328.684,74.858,329.288,75.442,329.038,75.901"/>
	<path clip-path="url(#SVGID_2_)" fill-rule="evenodd" clip-rule="evenodd" fill="#FFFFFF" d="M318.126,89.985
		c-0.283,0.521-1.65,0.369-3.041-0.366c-1.398-0.728-2.26-1.744-1.945-2.275c0.314-0.525,1.664-0.357,3.023,0.365
		C317.517,88.427,318.397,89.447,318.126,89.985"/>
	<path clip-path="url(#SVGID_2_)" fill-rule="evenodd" clip-rule="evenodd" fill="#FFFFFF" d="M319.919,101.166
		c-0.119,0.676-1.557,0.746-3.217,0.125c-1.652-0.609-2.867-1.676-2.707-2.364c0.16-0.69,1.604-0.751,3.217-0.124
		C318.827,99.422,320.034,100.477,319.919,101.166"/>
	<path clip-path="url(#SVGID_2_)" fill-rule="evenodd" clip-rule="evenodd" fill="#FFFFFF" d="M308.604,82.793
		c-0.264,0.345-1.084,0.227-1.816-0.265c-0.732-0.489-1.09-1.165-0.803-1.506c0.285-0.34,1.094-0.221,1.805,0.263
		C308.509,81.776,308.868,82.457,308.604,82.793"/>
	<path clip-path="url(#SVGID_2_)" fill-rule="evenodd" clip-rule="evenodd" fill="#FFFFFF" d="M303.376,77.656
		c-0.223,0.254-0.809,0.168-1.307-0.186c-0.492-0.351-0.711-0.837-0.477-1.093c0.234-0.244,0.805-0.151,1.299,0.203
		C303.378,76.933,303.597,77.422,303.376,77.656"/>
	<path clip-path="url(#SVGID_2_)" fill-rule="evenodd" clip-rule="evenodd" fill="#FFFFFF" d="M308.829,95.188
		c-0.234,0.418-1.25,0.248-2.277-0.352c-1.029-0.607-1.648-1.439-1.4-1.853c0.254-0.422,1.266-0.259,2.27,0.348
		C308.425,93.939,309.054,94.784,308.829,95.188"/>
	<path clip-path="url(#SVGID_2_)" fill-rule="evenodd" clip-rule="evenodd" fill="#FFFFFF" d="M301.829,88.254
		c-0.232,0.305-0.924,0.186-1.547-0.256c-0.625-0.444-0.941-1.056-0.703-1.359c0.238-0.293,0.936-0.174,1.543,0.27
		C301.741,87.344,302.059,87.946,301.829,88.254"/>
	<path clip-path="url(#SVGID_2_)" fill="#FFFFFF" d="M371.991,89.779c0.104,0.11,0.207,0.215,0.301,0.324
		C372.198,89.994,372.095,89.893,371.991,89.779"/>
	<path clip-path="url(#SVGID_2_)" fill="#002F75" d="M333.976,118.139c0.023-1.443,1.387-2.598,3.051-2.576
		c1.67,0.014,2.986,1.203,2.961,2.646c-0.018,1.431-1.377,2.58-3.043,2.57C335.274,120.756,333.948,119.582,333.976,118.139"/>
	<path clip-path="url(#SVGID_2_)" fill="#002F75" d="M368.552,94.703c-0.078-1.062,0.816-1.986,1.994-2.082
		c1.194-0.086,2.207,0.691,2.279,1.748c0.068,1.058-0.82,1.988-2.003,2.082C369.644,96.537,368.618,95.756,368.552,94.703"/>
	<polygon clip-path="url(#SVGID_2_)" fill="#231815" points="85.803,111.541 83.786,111.541 83.786,103.537 74.182,103.537 
		74.182,111.541 72.173,111.541 72.173,96.147 74.182,96.147 74.182,101.212 83.786,101.212 83.786,96.147 85.803,96.147 	"/>
	<path clip-path="url(#SVGID_2_)" fill="#231815" d="M162.737,105.912h-3.508c-0.758,0-1.317,0.085-1.684,0.253
		c-0.609,0.278-0.914,0.818-0.914,1.611c0.009,0.75,0.299,1.237,0.871,1.475c0.328,0.145,0.895,0.218,1.695,0.218h2.915
		c1.003,0,1.726-0.162,2.158-0.485c0.396-0.302,0.597-0.787,0.597-1.46C164.821,106.438,164.108,105.903,162.737,105.912
		 M155.759,99.887h6.562c1.853,0,3.169,0.561,3.955,1.681c1.019,1.429,0.736,3.417,0.736,5.061v1.687
		c0,0.858-0.244,1.668-0.691,2.266c-0.43,0.578-1.057,0.96-1.833,0.96c-0.689,0.002-1.373,0-2.056,0h-3.362
		c-1.539,0-2.617-0.203-3.236-0.615c-0.855-0.563-1.283-1.66-1.283-3.289c0.022-1.524,0.502-2.572,1.371-3.123
		c0.633-0.401,1.69-0.597,3.164-0.597c0,0,5.717,0.034,5.717,0c0-0.579-0.147-1.263-0.734-1.593
		c-0.571-0.323-1.278-0.379-1.916-0.379h-6.452L155.759,99.887z"/>
	<path clip-path="url(#SVGID_2_)" fill="#231815" d="M110.458,99.961c1.474,0,2.625,0.441,3.447,1.329
		c0.827,0.894,1.237,1.786,1.237,3.481v6.77h-2.014v-6.779c0-0.973-0.262-1.345-0.787-1.891c-0.521-0.547-1.219-0.821-2.082-0.821
		h-1.845c-0.867,0-1.564,0.274-2.084,0.821c-0.527,0.546-0.792,0.918-0.792,1.891v6.779h-2.007v-6.77
		c0-1.695,0.406-2.588,1.233-3.481c0.823-0.888,1.976-1.329,3.451-1.329H110.458z"/>
	<path clip-path="url(#SVGID_2_)" fill="#231815" d="M135.827,99.961v6.576c0,0.979-0.26,1.345-0.786,1.889
		c-0.526,0.549-1.217,0.824-2.087,0.824H131.7c-0.861,0-1.559-0.275-2.08-0.824c-0.525-0.544-0.787-0.91-0.787-1.889v-6.576h-2.113
		v6.576c0,0.979-0.261,1.345-0.784,1.889c-0.527,0.549-1.221,0.824-2.086,0.824h-1.252c-0.861,0-1.561-0.275-2.082-0.824
		c-0.526-0.544-0.787-0.91-0.787-1.889v-6.576h-2.016v6.766c0,1.696,0.411,2.59,1.237,3.482c0.823,0.891,1.975,1.332,3.449,1.332
		h1.65c1.477,0,2.63-0.441,3.45-1.332c0.099-0.107,0.191-0.217,0.281-0.318c0.084,0.102,0.178,0.211,0.274,0.318
		c0.826,0.891,1.976,1.332,3.449,1.332h1.65c1.479,0,2.629-0.441,3.451-1.332c0.827-0.893,1.239-1.786,1.239-3.482v-6.766H135.827z"
		/>
	<path clip-path="url(#SVGID_2_)" fill="#231815" d="M150.887,101.29c-0.824-0.887-1.975-1.329-3.451-1.329h-2.24
		c-1.077,0-1.973,0.235-2.704,0.705v-4.62h-2.023v15.495h2.055v-6.779c0-0.973,0.261-1.345,0.783-1.891
		c0.525-0.547,1.217-0.821,2.084-0.821h1.846c0.867,0,1.562,0.274,2.088,0.821c0.519,0.546,0.783,0.918,0.783,1.891v6.779h2.019
		v-6.77C152.127,103.076,151.711,102.184,150.887,101.29"/>
	<path clip-path="url(#SVGID_2_)" fill="#231815" d="M96.728,105.912h-3.513c-0.752,0-1.313,0.085-1.681,0.253
		c-0.606,0.278-0.912,0.818-0.912,1.611c0.013,0.75,0.301,1.237,0.869,1.475c0.329,0.145,0.896,0.218,1.697,0.218h2.915
		c1.005,0,1.725-0.162,2.161-0.485c0.398-0.302,0.597-0.787,0.597-1.46C98.812,106.438,98.1,105.903,96.728,105.912 M89.748,99.887
		h6.564c1.852,0,3.172,0.561,3.954,1.681c1.019,1.429,0.737,3.417,0.734,5.061v1.687c0,0.858-0.238,1.668-0.688,2.266
		c-0.427,0.578-1.053,0.96-1.838,0.96c-0.682,0.002-1.366,0-2.051,0h-3.362c-1.541,0-2.616-0.203-3.234-0.615
		c-0.856-0.563-1.282-1.66-1.282-3.289c0.019-1.524,0.495-2.572,1.37-3.123c0.634-0.401,1.687-0.597,3.163-0.597
		c0,0,5.719,0.034,5.719,0c0-0.579-0.151-1.263-0.739-1.593c-0.57-0.323-1.273-0.379-1.914-0.379h-6.452L89.748,99.887z"/>
	<path clip-path="url(#SVGID_2_)" fill="#F6BA81" d="M39.239,103.967c-0.555-5.057,4.74-9.11,11.829-9.056
		c7.089,0.055,13.287,4.193,13.841,9.245c0.556,5.055-4.737,9.105-11.827,9.048C45.998,113.153,39.794,109.014,39.239,103.967
		 M66.229,105.532c-0.64-6.266-7.772-11.398-15.934-11.469c-8.159-0.062-14.252,4.961-13.612,11.224
		c0.639,6.266,7.774,11.399,15.931,11.467C60.772,116.818,66.871,111.799,66.229,105.532"/>
	<path clip-path="url(#SVGID_2_)" fill="#F39E50" d="M53.91,116.877c-4.017,4.205-10.468,4.553-14.404,0.783
		c-3.938-3.769-3.871-10.229,0.149-14.429c4.019-4.195,10.471-4.546,14.406-0.774C57.999,106.227,57.933,112.683,53.91,116.877
		 M39.023,103.1c-4.671,4.879-4.747,12.387-0.171,16.77c4.574,4.379,12.072,3.975,16.742-0.908
		c4.674-4.877,4.755-12.385,0.174-16.766C51.195,97.815,43.695,98.218,39.023,103.1"/>
	<path clip-path="url(#SVGID_2_)" fill="#EC7000" d="M39.451,87.385c8.357-3.132,16.622,0.036,18.459,7.077
		c1.837,7.042-3.451,15.292-11.805,18.42c-8.358,3.135-16.625-0.035-18.461-7.076C25.807,98.766,31.094,90.518,39.451,87.385
		 M31.688,90.076c-8.672,6.864-10.879,16.814-4.932,22.219c5.948,5.405,17.8,4.219,26.471-2.646
		c8.671-6.863,10.881-16.812,4.931-22.215C52.208,82.029,40.358,83.21,31.688,90.076"/>
</g>
</svg>
