<?xml version="1.0" encoding="utf-8"?>
<!-- Generator: Adobe Illustrator 14.0.0, SVG Export Plug-In . SVG Version: 6.00 Build 43363)  -->
<!DOCTYPE svg PUBLIC "-//W3C//DTD SVG 1.1//EN" "http://www.w3.org/Graphics/SVG/1.1/DTD/svg11.dtd">
<svg version="1.1" xmlns="http://www.w3.org/2000/svg" xmlns:xlink="http://www.w3.org/1999/xlink" x="0px" y="0px"
	 width="595.28px" height="655.854px" viewBox="0 0 595.28 655.854" enable-background="new 0 0 595.28 655.854"
	 xml:space="preserve">
<g id="Layer_2">
	<g>
		<path fill="#EE7A47" d="M4.73,653.594c1.107-10.836,1.893-19.818,2.36-26.947c0.874-12.631,1.807-29.93,2.798-51.893
			c0.698-15.299,1.049-26.076,1.049-32.336v-7.475c9.667,0.117,16.326,0.174,19.974,0.174c2.432,0,8.683-0.057,18.758-0.174
			l-4.108,64.932l-2.099,53.719l-18.845-0.174C21.954,653.42,15.324,653.479,4.73,653.594z M48.279,590.967l19.471-26.492
			l15.733-22.063l4.868-7.469c10.778,0.117,18.08,0.174,21.904,0.174c1.043,0,7.967-0.057,20.774-0.174l-36.682,46.293l-6.867,9.295
			l6.432,10.264l36.334,52.799l-21.383-0.174c-4.637,0-12.488,0.059-23.556,0.174C77.833,639.502,65.49,618.625,48.279,590.967z"/>
		<path fill="#EE7A47" d="M166.625,653.594c-10.79-0.115-17.403-0.174-19.839-0.174c-4.41,0-11.516,0.059-21.319,0.174l7.219-12.518
			l44.962-84.662l4.784-9.477c1.391-2.779,3.333-6.779,5.827-11.994c10.197,0.117,17.643,0.174,22.336,0.174
			c8.17,0,15.73-0.057,22.684-0.174l12.683,36.246l25.8,69.713l5.039,12.691c-10.037-0.115-16.127-0.174-18.273-0.174
			c-4.873,0-12.037,0.059-21.493,0.174l-28.289-92.775c-3.822,8.504-7.064,15.475-9.726,20.912"/>
		<path fill="#EE7A47" d="M284.884,651.768c-0.754-12.344-1.624-22.223-2.608-29.641c6.502,2.898,12.292,4.912,17.372,6.041
			c5.08,1.131,9.536,1.695,13.369,1.695c5.05,0,9.069-0.738,12.06-2.217c2.99-1.477,4.485-3.664,4.485-6.563
			c0-0.984-0.146-1.926-0.436-2.824c-0.291-0.898-0.843-1.912-1.654-3.043c-0.814-1.129-1.975-2.361-3.484-3.693l-16.376-14.256
			c-3.833-3.244-6.504-5.592-8.015-7.041c-3.078-2.955-5.473-5.707-7.186-8.258c-1.714-2.549-2.962-5.143-3.746-7.779
			c-0.783-2.637-1.175-5.434-1.175-8.389c0-3.533,0.623-6.996,1.869-10.387c1.247-3.391,3.115-6.563,5.607-9.518
			c2.491-2.957,5.793-5.506,9.91-7.65c4.113-2.143,8.518-3.607,13.212-4.389c4.693-0.783,9.531-1.174,14.516-1.174
			c9.792,0,20.456,1.129,31.988,3.391c0.173,3.998,0.376,7.664,0.608,10.996c0.23,3.332,0.782,9.17,1.651,17.514
			c-5.332-2.143-10.2-3.635-14.604-4.477c-4.404-0.84-8.2-1.26-11.387-1.26c-4.521,0-8.271,0.84-11.256,2.52
			c-2.986,1.682-4.478,3.768-4.478,6.26c0,1.16,0.231,2.289,0.695,3.389c0.464,1.102,1.332,2.391,2.608,3.869
			c1.272,1.479,2.955,3.1,5.042,4.867c2.085,1.77,5.358,4.391,9.821,7.867l6.26,4.953c1.854,1.508,3.853,3.334,5.997,5.477
			c2.143,2.145,3.997,4.26,5.562,6.346s2.768,3.998,3.608,5.738c0.839,1.738,1.463,3.49,1.868,5.258
			c0.406,1.768,0.608,3.666,0.608,5.693c0,5.217-1.246,10.186-3.737,14.906c-2.491,4.725-6.026,8.605-10.604,11.65
			c-4.577,3.041-9.604,5.17-15.08,6.387c-5.478,1.217-11.258,1.826-17.343,1.826C311.047,655.854,299.197,654.49,284.884,651.768z"
			/>
		<path fill="#EE7A47" d="M384.671,653.594c1.217-11.764,2.055-21.211,2.52-28.338c0.693-10.545,1.358-25.047,1.995-43.504
			c0.639-18.457,0.958-30.871,0.958-37.248v-9.561c17.442,0.117,33.669,0.174,48.678,0.174c15.125,0,29.672-0.057,43.639-0.174
			c-0.927,13.328-1.391,22.051-1.391,26.164l-7.562-0.262l-6.085-0.086l-6.085-0.088h-17.124c-1.971,0-7.735,0.059-17.298,0.174
			l-0.78,20.254l12.603,0.26h14.082c4.055,0,10.256-0.086,18.601-0.26c-0.636,10.953-0.955,19.529-0.955,25.729
			c-9.313-0.289-16.229-0.434-20.74-0.434c-7.638,0-15.969,0.145-24.991,0.434l-0.903,31.293l-0.09,11.648v3.824l-18.708-0.174
			C403.583,653.42,396.795,653.479,384.671,653.594z"/>
		<path fill="#EE7A47" d="M493.935,653.594c1.215-11.764,2.054-21.211,2.518-28.338c0.694-10.545,1.358-25.047,1.997-43.504
			c0.637-18.457,0.956-30.871,0.956-37.248v-9.561c17.442,0.117,33.669,0.174,48.678,0.174c15.126,0,29.672-0.057,43.639-0.174
			c-0.927,13.328-1.392,22.051-1.392,26.164l-7.561-0.262l-6.085-0.086l-6.085-0.088h-17.124c-1.97,0-7.735,0.059-17.298,0.174
			l-0.779,20.254l12.603,0.26h14.081c4.056,0,10.256-0.086,18.602-0.26c-0.637,10.953-0.955,19.529-0.955,25.729
			c-9.314-0.289-16.229-0.434-20.741-0.434c-7.637,0-15.968,0.145-24.991,0.434l-0.903,31.293l-0.089,11.648v3.824l-18.709-0.174
			C512.845,653.42,506.057,653.479,493.935,653.594z"/>
	</g>
	<g opacity="0.2">
		<path fill="none" stroke="#2C87B2" d="M3.559,254.081c1.107-10.835,1.893-19.818,2.36-26.946
			c0.874-12.632,1.807-29.931,2.798-51.894c0.698-15.298,1.049-26.076,1.049-32.336v-7.475c9.667,0.117,16.326,0.174,19.974,0.174
			c2.432,0,8.683-0.057,18.758-0.174l-4.108,64.932l-2.099,53.719l-18.845-0.173C20.782,253.908,14.152,253.966,3.559,254.081z
			 M47.107,191.454l19.471-26.492L82.311,142.9l4.868-7.47c10.778,0.117,18.08,0.174,21.904,0.174c1.043,0,7.967-0.057,20.774-0.174
			l-36.682,46.293l-6.867,9.295l6.432,10.264l36.334,52.799l-21.383-0.173c-4.637,0-12.488,0.058-23.556,0.173
			C76.661,239.99,64.318,219.113,47.107,191.454z"/>
		<path fill="none" stroke="#2C87B2" d="M165.453,254.081c-10.79-0.115-17.403-0.173-19.839-0.173
			c-4.41,0-11.516,0.058-21.319,0.173l7.219-12.518l44.962-84.662l4.784-9.476c1.391-2.78,3.333-6.779,5.827-11.995
			c10.197,0.117,17.643,0.174,22.336,0.174c8.17,0,15.73-0.057,22.684-0.174l12.683,36.247l25.8,69.713l5.039,12.69
			c-10.037-0.115-16.127-0.173-18.273-0.173c-4.873,0-12.037,0.058-21.493,0.173l-28.289-92.775
			c-3.822,8.505-7.064,15.475-9.726,20.912L165.453,254.081z"/>
		<path fill="none" stroke="#2C87B2" d="M283.712,252.256c-0.754-12.345-1.624-22.224-2.608-29.642
			c6.502,2.898,12.292,4.912,17.373,6.042c5.08,1.13,9.536,1.695,13.369,1.695c5.05,0,9.069-0.738,12.06-2.218
			c2.99-1.477,4.485-3.664,4.485-6.562c0-0.985-0.146-1.927-0.436-2.825c-0.291-0.898-0.843-1.912-1.654-3.043
			c-0.814-1.129-1.975-2.36-3.484-3.693l-16.376-14.256c-3.833-3.244-6.504-5.592-8.014-7.041c-3.078-2.955-5.473-5.707-7.186-8.258
			c-1.714-2.549-2.962-5.142-3.746-7.779c-0.783-2.637-1.175-5.434-1.175-8.389c0-3.533,0.623-6.996,1.869-10.387
			c1.247-3.39,3.115-6.563,5.607-9.518c2.491-2.956,5.793-5.505,9.91-7.649c4.113-2.144,8.518-3.607,13.212-4.39
			c4.693-0.782,9.531-1.174,14.516-1.174c9.792,0,20.456,1.13,31.988,3.391c0.173,3.998,0.376,7.664,0.608,10.996
			c0.23,3.332,0.782,9.17,1.651,17.514c-5.332-2.143-10.2-3.635-14.604-4.476c-4.404-0.84-8.2-1.261-11.387-1.261
			c-4.521,0-8.271,0.84-11.256,2.521c-2.986,1.681-4.478,3.767-4.478,6.259c0,1.16,0.231,2.289,0.695,3.39
			c0.464,1.102,1.332,2.391,2.608,3.868c1.272,1.479,2.955,3.101,5.042,4.868c2.085,1.769,5.358,4.39,9.821,7.866l6.26,4.954
			c1.854,1.508,3.853,3.333,5.997,5.477c2.143,2.145,3.997,4.259,5.562,6.345c1.564,2.087,2.768,3.999,3.608,5.738
			c0.839,1.738,1.463,3.491,1.868,5.259c0.406,1.768,0.608,3.665,0.608,5.693c0,5.216-1.246,10.186-3.737,14.906
			c-2.491,4.725-6.026,8.605-10.604,11.649c-4.577,3.041-9.604,5.17-15.08,6.388c-5.478,1.217-11.258,1.826-17.343,1.826
			C309.875,256.342,298.025,254.979,283.712,252.256z"/>
		<path fill="none" stroke="#2C87B2" d="M383.499,254.081c1.217-11.764,2.055-21.21,2.52-28.338
			c0.693-10.545,1.358-25.047,1.995-43.504c0.639-18.456,0.958-30.871,0.958-37.247v-9.562c17.442,0.117,33.669,0.174,48.678,0.174
			c15.125,0,29.672-0.057,43.639-0.174c-0.927,13.329-1.391,22.051-1.391,26.164l-7.562-0.261l-6.085-0.087l-6.085-0.087h-17.124
			c-1.971,0-7.735,0.058-17.298,0.174l-0.78,20.253l12.603,0.261h14.082c4.055,0,10.256-0.087,18.601-0.261
			c-0.636,10.953-0.955,19.529-0.955,25.729c-9.313-0.29-16.229-0.435-20.74-0.435c-7.638,0-15.969,0.145-24.991,0.435
			l-0.903,31.292l-0.09,11.648v3.824l-18.708-0.173C402.411,253.908,395.623,253.966,383.499,254.081z"/>
		<path fill="none" stroke="#2C87B2" d="M492.763,254.081c1.215-11.764,2.054-21.21,2.518-28.338
			c0.694-10.545,1.358-25.047,1.997-43.504c0.637-18.456,0.956-30.871,0.956-37.247v-9.562c17.442,0.117,33.669,0.174,48.678,0.174
			c15.126,0,29.672-0.057,43.639-0.174c-0.927,13.329-1.392,22.051-1.392,26.164l-7.561-0.261l-6.085-0.087l-6.085-0.087h-17.124
			c-1.97,0-7.735,0.058-17.298,0.174l-0.779,20.253l12.603,0.261h14.081c4.056,0,10.256-0.087,18.602-0.261
			c-0.637,10.953-0.955,19.529-0.955,25.729c-9.314-0.29-16.229-0.435-20.741-0.435c-7.637,0-15.968,0.145-24.991,0.435
			l-0.903,31.292l-0.089,11.648v3.824l-18.709-0.173C511.673,253.908,504.885,253.966,492.763,254.081z"/>
	</g>
	<g opacity="0.1">
		<path fill="none" stroke="#040000" d="M3.559,120.91c1.107-10.835,1.893-19.818,2.36-26.946
			C6.792,81.332,7.726,64.033,8.717,42.07C9.415,26.772,9.766,15.994,9.766,9.734V2.26c9.667,0.117,16.326,0.174,19.974,0.174
			c2.432,0,8.683-0.057,18.758-0.174L44.39,67.191l-2.099,53.719l-18.845-0.173C20.782,120.737,14.152,120.795,3.559,120.91z
			 M47.107,58.283l19.471-26.492L82.311,9.729l4.868-7.47c10.778,0.117,18.08,0.174,21.904,0.174c1.043,0,7.967-0.057,20.774-0.174
			L93.176,48.553l-6.867,9.295l6.432,10.264l36.334,52.799l-21.383-0.173c-4.637,0-12.488,0.058-23.556,0.173
			C76.661,106.819,64.318,85.942,47.107,58.283z"/>
		<path fill="none" stroke="#040000" d="M165.453,120.91c-10.79-0.115-17.403-0.173-19.839-0.173c-4.41,0-11.516,0.058-21.319,0.173
			l7.219-12.518l44.962-84.662l4.784-9.476c1.391-2.78,3.333-6.779,5.827-11.995c10.197,0.117,17.643,0.174,22.336,0.174
			c8.17,0,15.73-0.057,22.684-0.174l12.683,36.247l25.8,69.713l5.039,12.69c-10.037-0.115-16.127-0.173-18.273-0.173
			c-4.873,0-12.037,0.058-21.493,0.173l-28.289-92.775c-3.822,8.505-7.064,15.475-9.726,20.912L165.453,120.91z"/>
		<path fill="none" stroke="#040000" d="M283.712,119.085c-0.754-12.345-1.624-22.224-2.608-29.642
			c6.502,2.898,12.292,4.912,17.373,6.042c5.08,1.13,9.536,1.695,13.369,1.695c5.05,0,9.069-0.738,12.06-2.218
			c2.99-1.477,4.485-3.664,4.485-6.562c0-0.985-0.146-1.927-0.436-2.825c-0.291-0.898-0.843-1.912-1.654-3.043
			c-0.814-1.129-1.975-2.36-3.484-3.693L306.44,64.584c-3.833-3.244-6.504-5.592-8.014-7.041c-3.078-2.955-5.473-5.707-7.186-8.258
			c-1.714-2.549-2.962-5.142-3.746-7.779c-0.783-2.637-1.175-5.434-1.175-8.389c0-3.533,0.623-6.996,1.869-10.387
			c1.247-3.39,3.115-6.563,5.607-9.518c2.491-2.956,5.793-5.505,9.91-7.649c4.113-2.144,8.518-3.607,13.212-4.39
			C321.61,0.392,326.448,0,331.433,0c9.792,0,20.456,1.13,31.988,3.391c0.173,3.998,0.376,7.664,0.608,10.996
			c0.23,3.332,0.782,9.17,1.651,17.514c-5.332-2.143-10.2-3.635-14.604-4.476c-4.404-0.84-8.2-1.261-11.387-1.261
			c-4.521,0-8.271,0.84-11.256,2.521c-2.986,1.681-4.478,3.767-4.478,6.259c0,1.16,0.231,2.289,0.695,3.39
			c0.464,1.102,1.332,2.391,2.608,3.868c1.272,1.479,2.955,3.101,5.042,4.868c2.085,1.769,5.358,4.39,9.821,7.866l6.26,4.954
			c1.854,1.508,3.853,3.333,5.997,5.477c2.143,2.145,3.997,4.259,5.562,6.345c1.564,2.087,2.768,3.999,3.608,5.738
			c0.839,1.738,1.463,3.491,1.868,5.259c0.406,1.768,0.608,3.665,0.608,5.693c0,5.216-1.246,10.186-3.737,14.906
			c-2.491,4.725-6.026,8.605-10.604,11.649c-4.577,3.041-9.604,5.17-15.08,6.388c-5.478,1.217-11.258,1.826-17.343,1.826
			C309.875,123.171,298.025,121.808,283.712,119.085z"/>
		<path fill="none" stroke="#040000" d="M383.499,120.91c1.217-11.764,2.055-21.21,2.52-28.338
			c0.693-10.545,1.358-25.047,1.995-43.504c0.639-18.456,0.958-30.871,0.958-37.247V2.26c17.442,0.117,33.669,0.174,48.678,0.174
			c15.125,0,29.672-0.057,43.639-0.174c-0.927,13.329-1.391,22.051-1.391,26.164l-7.562-0.261l-6.085-0.087l-6.085-0.087h-17.124
			c-1.971,0-7.735,0.058-17.298,0.174l-0.78,20.253l12.603,0.261h14.082c4.055,0,10.256-0.087,18.601-0.261
			c-0.636,10.953-0.955,19.529-0.955,25.729c-9.313-0.29-16.229-0.435-20.74-0.435c-7.638,0-15.969,0.145-24.991,0.435
			l-0.903,31.292l-0.09,11.648v3.824l-18.708-0.173C402.411,120.737,395.623,120.795,383.499,120.91z"/>
		<path fill="none" stroke="#040000" d="M492.763,120.91c1.215-11.764,2.054-21.21,2.518-28.338
			c0.694-10.545,1.358-25.047,1.997-43.504c0.637-18.456,0.956-30.871,0.956-37.247V2.26c17.442,0.117,33.669,0.174,48.678,0.174
			c15.126,0,29.672-0.057,43.639-0.174c-0.927,13.329-1.392,22.051-1.392,26.164l-7.561-0.261l-6.085-0.087l-6.085-0.087h-17.124
			c-1.97,0-7.735,0.058-17.298,0.174l-0.779,20.253l12.603,0.261h14.081c4.056,0,10.256-0.087,18.602-0.261
			c-0.637,10.953-0.955,19.529-0.955,25.729c-9.314-0.29-16.229-0.435-20.741-0.435c-7.637,0-15.968,0.145-24.991,0.435
			l-0.903,31.292l-0.089,11.648v3.824l-18.709-0.173C511.673,120.737,504.885,120.795,492.763,120.91z"/>
	</g>
	<g opacity="0.5">
		<path fill="none" stroke="#4C3E86" d="M3.559,387.252c1.107-10.835,1.893-19.818,2.36-26.946
			c0.874-12.632,1.807-29.93,2.798-51.893c0.698-15.298,1.049-26.077,1.049-32.336v-7.475c9.667,0.117,16.326,0.174,19.974,0.174
			c2.432,0,8.683-0.058,18.758-0.174l-4.108,64.932l-2.099,53.719l-18.845-0.173C20.782,387.079,14.152,387.137,3.559,387.252z
			 M47.107,324.625l19.471-26.492l15.733-22.062l4.868-7.47c10.778,0.117,18.08,0.174,21.904,0.174
			c1.043,0,7.967-0.058,20.774-0.174l-36.682,46.293l-6.867,9.294l6.432,10.264l36.334,52.799l-21.383-0.173
			c-4.637,0-12.488,0.058-23.556,0.173C76.661,373.161,64.318,352.284,47.107,324.625z"/>
		<path fill="none" stroke="#4C3E86" d="M165.453,387.252c-10.79-0.115-17.403-0.173-19.839-0.173
			c-4.41,0-11.516,0.058-21.319,0.173l7.219-12.518l44.962-84.663l4.784-9.475c1.391-2.781,3.333-6.779,5.827-11.995
			c10.197,0.117,17.643,0.174,22.336,0.174c8.17,0,15.73-0.058,22.684-0.174l12.683,36.247l25.8,69.713l5.039,12.69
			c-10.037-0.115-16.127-0.173-18.273-0.173c-4.873,0-12.037,0.058-21.493,0.173l-28.289-92.775
			c-3.822,8.505-7.064,15.475-9.726,20.912L165.453,387.252z"/>
		<path fill="none" stroke="#4C3E86" d="M283.712,385.427c-0.754-12.345-1.624-22.224-2.608-29.642
			c6.502,2.898,12.292,4.912,17.373,6.042c5.08,1.13,9.536,1.695,13.369,1.695c5.05,0,9.069-0.738,12.06-2.218
			c2.99-1.477,4.485-3.664,4.485-6.562c0-0.985-0.146-1.927-0.436-2.825c-0.291-0.898-0.843-1.912-1.654-3.042
			c-0.814-1.13-1.975-2.361-3.484-3.694l-16.376-14.256c-3.833-3.244-6.504-5.591-8.014-7.041c-3.078-2.956-5.473-5.707-7.186-8.258
			c-1.714-2.549-2.962-5.142-3.746-7.779c-0.783-2.636-1.175-5.433-1.175-8.389c0-3.534,0.623-6.997,1.869-10.387
			c1.247-3.39,3.115-6.563,5.607-9.518c2.491-2.956,5.793-5.504,9.91-7.649c4.113-2.144,8.518-3.607,13.212-4.39
			c4.693-0.782,9.531-1.173,14.516-1.173c9.792,0,20.456,1.13,31.988,3.39c0.173,3.998,0.376,7.665,0.608,10.996
			c0.23,3.333,0.782,9.17,1.651,17.515c-5.332-2.144-10.2-3.636-14.604-4.476c-4.404-0.84-8.2-1.261-11.387-1.261
			c-4.521,0-8.271,0.84-11.256,2.521c-2.986,1.681-4.478,3.767-4.478,6.258c0,1.16,0.231,2.29,0.695,3.39
			c0.464,1.102,1.332,2.391,2.608,3.868c1.272,1.478,2.955,3.101,5.042,4.868c2.085,1.768,5.358,4.389,9.821,7.866l6.26,4.955
			c1.854,1.508,3.853,3.333,5.997,5.477c2.143,2.145,3.997,4.259,5.562,6.345c1.564,2.086,2.768,3.999,3.608,5.737
			c0.839,1.738,1.463,3.492,1.868,5.259c0.406,1.768,0.608,3.665,0.608,5.693c0,5.216-1.246,10.186-3.737,14.906
			c-2.491,4.725-6.026,8.605-10.604,11.649c-4.577,3.041-9.604,5.17-15.08,6.388c-5.478,1.217-11.258,1.826-17.343,1.826
			C309.875,389.513,298.025,388.149,283.712,385.427z"/>
		<path fill="none" stroke="#4C3E86" d="M383.499,387.252c1.217-11.764,2.055-21.21,2.52-28.338
			c0.693-10.545,1.358-25.046,1.995-43.504c0.639-18.456,0.958-30.872,0.958-37.247v-9.562c17.442,0.117,33.669,0.174,48.678,0.174
			c15.125,0,29.672-0.058,43.639-0.174c-0.927,13.329-1.391,22.05-1.391,26.164l-7.562-0.261l-6.085-0.087l-6.085-0.087h-17.124
			c-1.971,0-7.735,0.058-17.298,0.174l-0.78,20.253l12.603,0.26h14.082c4.055,0,10.256-0.086,18.601-0.26
			c-0.636,10.952-0.955,19.529-0.955,25.729c-9.313-0.29-16.229-0.435-20.74-0.435c-7.638,0-15.969,0.145-24.991,0.435
			l-0.903,31.292l-0.09,11.648v3.824l-18.708-0.173C402.411,387.079,395.623,387.137,383.499,387.252z"/>
		<path fill="none" stroke="#4C3E86" d="M492.763,387.252c1.215-11.764,2.054-21.21,2.518-28.338
			c0.694-10.545,1.358-25.046,1.997-43.504c0.637-18.456,0.956-30.872,0.956-37.247v-9.562c17.442,0.117,33.669,0.174,48.678,0.174
			c15.126,0,29.672-0.058,43.639-0.174c-0.927,13.329-1.392,22.05-1.392,26.164l-7.561-0.261l-6.085-0.087l-6.085-0.087h-17.124
			c-1.97,0-7.735,0.058-17.298,0.174l-0.779,20.253l12.603,0.26h14.081c4.056,0,10.256-0.086,18.602-0.26
			c-0.637,10.952-0.955,19.529-0.955,25.729c-9.314-0.29-16.229-0.435-20.741-0.435c-7.637,0-15.968,0.145-24.991,0.435
			l-0.903,31.292l-0.089,11.648v3.824l-18.709-0.173C511.673,387.079,504.885,387.137,492.763,387.252z"/>
	</g>
	<g opacity="0.7">
		<path fill="none" stroke="#C13729" d="M3.559,520.422c1.107-10.834,1.893-19.818,2.36-26.945
			c0.874-12.633,1.807-29.93,2.798-51.893c0.698-15.299,1.049-26.077,1.049-32.336v-7.475c9.667,0.117,16.326,0.174,19.974,0.174
			c2.432,0,8.683-0.058,18.758-0.174l-4.108,64.931l-2.099,53.719l-18.845-0.172C20.782,520.25,14.152,520.307,3.559,520.422z
			 M47.107,457.795l19.471-26.491l15.733-22.062l4.868-7.47c10.778,0.117,18.08,0.174,21.904,0.174
			c1.043,0,7.967-0.058,20.774-0.174l-36.682,46.294l-6.867,9.293l6.432,10.264l36.334,52.799l-21.383-0.172
			c-4.637,0-12.488,0.057-23.556,0.172C76.661,506.332,64.318,485.455,47.107,457.795z"/>
		<path fill="none" stroke="#C13729" d="M165.453,520.422c-10.79-0.115-17.403-0.172-19.839-0.172
			c-4.41,0-11.516,0.057-21.319,0.172l7.219-12.518l44.962-84.662l4.784-9.475c1.391-2.781,3.333-6.779,5.827-11.995
			c10.197,0.117,17.643,0.174,22.336,0.174c8.17,0,15.73-0.058,22.684-0.174l12.683,36.247l25.8,69.713l5.039,12.689
			c-10.037-0.115-16.127-0.172-18.273-0.172c-4.873,0-12.037,0.057-21.493,0.172l-28.289-92.774
			c-3.822,8.505-7.064,15.474-9.726,20.911L165.453,520.422z"/>
		<path fill="none" stroke="#C13729" d="M283.712,518.598c-0.754-12.346-1.624-22.225-2.608-29.643
			c6.502,2.898,12.292,4.912,17.373,6.043c5.08,1.129,9.536,1.695,13.369,1.695c5.05,0,9.069-0.738,12.06-2.219
			c2.99-1.477,4.485-3.664,4.485-6.561c0-0.986-0.146-1.928-0.436-2.826c-0.291-0.898-0.843-1.912-1.654-3.041
			c-0.814-1.131-1.975-2.361-3.484-3.695l-16.376-14.256c-3.833-3.244-6.504-5.59-8.014-7.041c-3.078-2.955-5.473-5.707-7.186-8.258
			c-1.714-2.549-2.962-5.141-3.746-7.779c-0.783-2.635-1.175-5.432-1.175-8.388c0-3.534,0.623-6.997,1.869-10.387
			c1.247-3.39,3.115-6.563,5.607-9.518c2.491-2.956,5.793-5.504,9.91-7.649c4.113-2.144,8.518-3.607,13.212-4.39
			c4.693-0.782,9.531-1.173,14.516-1.173c9.792,0,20.456,1.13,31.988,3.39c0.173,3.998,0.376,7.665,0.608,10.996
			c0.23,3.333,0.782,9.169,1.651,17.515c-5.332-2.145-10.2-3.637-14.604-4.477c-4.404-0.84-8.2-1.261-11.387-1.261
			c-4.521,0-8.271,0.841-11.256,2.521c-2.986,1.682-4.478,3.768-4.478,6.258c0,1.16,0.231,2.291,0.695,3.391
			c0.464,1.102,1.332,2.391,2.608,3.867c1.272,1.479,2.955,3.102,5.042,4.869c2.085,1.768,5.358,4.389,9.821,7.865l6.26,4.955
			c1.854,1.508,3.853,3.334,5.997,5.477c2.143,2.145,3.997,4.26,5.562,6.346s2.768,3.998,3.608,5.736
			c0.839,1.738,1.463,3.492,1.868,5.26c0.406,1.768,0.608,3.664,0.608,5.693c0,5.215-1.246,10.186-3.737,14.906
			c-2.491,4.725-6.026,8.605-10.604,11.648c-4.577,3.041-9.604,5.17-15.08,6.389c-5.478,1.217-11.258,1.826-17.343,1.826
			C309.875,522.684,298.025,521.32,283.712,518.598z"/>
		<path fill="none" stroke="#C13729" d="M383.499,520.422c1.217-11.764,2.055-21.209,2.52-28.338
			c0.693-10.545,1.358-25.045,1.995-43.504c0.639-18.455,0.958-30.871,0.958-37.246v-9.562c17.442,0.117,33.669,0.174,48.678,0.174
			c15.125,0,29.672-0.058,43.639-0.174c-0.927,13.329-1.391,22.05-1.391,26.164l-7.562-0.261l-6.085-0.087l-6.085-0.087h-17.124
			c-1.971,0-7.735,0.059-17.298,0.174l-0.78,20.254l12.603,0.26h14.082c4.055,0,10.256-0.086,18.601-0.26
			c-0.636,10.951-0.955,19.527-0.955,25.729c-9.313-0.289-16.229-0.436-20.74-0.436c-7.638,0-15.969,0.146-24.991,0.436
			l-0.903,31.291l-0.09,11.648v3.824l-18.708-0.172C402.411,520.25,395.623,520.307,383.499,520.422z"/>
		<path fill="none" stroke="#C13729" d="M492.763,520.422c1.215-11.764,2.054-21.209,2.518-28.338
			c0.694-10.545,1.358-25.045,1.997-43.504c0.637-18.455,0.956-30.871,0.956-37.246v-9.562c17.442,0.117,33.669,0.174,48.678,0.174
			c15.126,0,29.672-0.058,43.639-0.174c-0.927,13.329-1.392,22.05-1.392,26.164l-7.561-0.261l-6.085-0.087l-6.085-0.087h-17.124
			c-1.97,0-7.735,0.059-17.298,0.174l-0.779,20.254l12.603,0.26h14.081c4.056,0,10.256-0.086,18.602-0.26
			c-0.637,10.951-0.955,19.527-0.955,25.729c-9.314-0.289-16.229-0.436-20.741-0.436c-7.637,0-15.968,0.146-24.991,0.436
			l-0.903,31.291l-0.089,11.648v3.824l-18.709-0.172C511.673,520.25,504.885,520.307,492.763,520.422z"/>
	</g>
</g>
<g id="Layer_1" display="none">
	<g display="inline">
		<path fill="#040000" d="M4.638,494.404c0.214-2.098,0.366-3.837,0.457-5.216c0.169-2.445,0.349-5.792,0.542-10.044
			c0.135-2.961,0.203-5.048,0.203-6.259v-1.446c1.872,0.023,3.16,0.034,3.866,0.034c0.47,0,1.681-0.011,3.63-0.034l-0.795,12.567
			l-0.405,10.397l-3.648-0.033C7.971,494.371,6.688,494.382,4.638,494.404z M13.067,482.283l3.768-5.128l3.045-4.27l0.942-1.446
			c2.086,0.023,3.5,0.034,4.24,0.034c0.202,0,1.542-0.011,4.021-0.034l-7.099,8.961l-1.33,1.797l1.246,1.987l7.032,10.22
			l-4.139-0.033c-0.897,0-2.417,0.011-4.56,0.033C18.786,491.677,16.398,487.636,13.067,482.283z"/>
		<path fill="#040000" d="M40.826,476.789c1.391,0,2.728,0.213,4.012,0.641c1.285,0.426,2.37,1.04,3.256,1.842
			c0.886,0.801,1.539,1.738,1.96,2.809c0.42,1.072,0.631,2.224,0.631,3.458c0,1.2-0.188,2.342-0.563,3.424s-1.012,2.097-1.91,3.044
			c-0.897,0.948-2.039,1.659-3.424,2.13s-2.852,0.706-4.399,0.706c-1.424,0-2.792-0.208-4.105-0.623
			c-1.312-0.415-2.409-1.021-3.289-1.816c-0.88-0.797-1.542-1.751-1.985-2.859c-0.443-1.111-0.665-2.277-0.665-3.5
			c0-1.224,0.216-2.389,0.648-3.5c0.432-1.11,1.116-2.108,2.052-2.995c0.937-0.886,2.095-1.566,3.474-2.044
			C37.898,477.027,39.334,476.789,40.826,476.789z M40.708,481.735c-0.718,0-1.357,0.187-1.918,0.556
			c-0.561,0.37-0.984,0.91-1.271,1.623c-0.286,0.713-0.429,1.489-0.429,2.331c0,1.233,0.309,2.179,0.925,2.834
			c0.617,0.656,1.391,0.983,2.322,0.983c0.707,0,1.34-0.188,1.901-0.563c0.561-0.376,0.984-0.931,1.271-1.665
			s0.429-1.523,0.429-2.364c0-0.695-0.112-1.323-0.336-1.884c-0.224-0.561-0.592-1.011-1.102-1.347
			C41.989,481.904,41.392,481.735,40.708,481.735z"/>
		<path fill="#040000" d="M72.121,494.404c-1.201-0.022-2.199-0.033-2.996-0.033c-0.897,0-1.985,0.011-3.265,0.033l0.096-2.137
			c-0.437,0.426-0.819,0.771-1.144,1.034c-0.325,0.265-0.743,0.52-1.253,0.766c-0.51,0.247-1.06,0.438-1.648,0.572
			c-0.589,0.135-1.197,0.202-1.825,0.202c-1.076,0-2.082-0.197-3.019-0.589c-0.937-0.393-1.735-0.951-2.396-1.673
			c-0.662-0.725-1.156-1.582-1.48-2.575c-0.326-0.993-0.488-2.022-0.488-3.088c0-1.514,0.297-2.994,0.892-4.441
			c0.595-1.446,1.372-2.585,2.332-3.415c0.96-0.831,2.043-1.415,3.25-1.758c1.207-0.342,2.511-0.514,3.914-0.514
			c0.932,0,2.02,0.084,3.267,0.253c0.088-1.335,0.149-3.202,0.182-5.603c1.378,0.023,2.504,0.034,3.378,0.034
			c1.131,0,2.274-0.011,3.429-0.034c-0.325,3.332-0.611,7.397-0.857,12.197C72.244,488.438,72.121,492.026,72.121,494.404z
			 M66.126,481.416c-0.595-0.135-1.157-0.202-1.686-0.202c-1.091,0-2.018,0.211-2.782,0.631c-0.764,0.422-1.352,1.077-1.762,1.969
			c-0.41,0.893-0.615,1.77-0.615,2.633c0,0.65,0.115,1.236,0.346,1.759c0.23,0.521,0.584,0.934,1.062,1.237
			c0.478,0.302,1.009,0.453,1.594,0.453c0.618,0,1.182-0.174,1.694-0.521c0.511-0.349,0.928-0.858,1.248-1.53
			c0.32-0.675,0.54-1.473,0.658-2.398C66,484.52,66.082,483.178,66.126,481.416z"/>
		<path fill="#040000" d="M77.485,482.123c0.213-1.111,0.348-1.876,0.404-2.297c0.056-0.42,0.146-1.079,0.269-1.978
			c3.23-0.706,6.006-1.06,8.328-1.06c1.324,0,2.536,0.149,3.635,0.445c1.1,0.298,1.958,0.777,2.575,1.438
			c0.617,0.662,0.926,1.609,0.926,2.845c0,0.627-0.085,2.04-0.252,4.239c-0.167,2.198-0.296,5.081-0.386,8.647
			c-1.1-0.022-2.194-0.033-3.283-0.033c-1.055,0-2.177,0.011-3.367,0.033c0.154-1.234,0.323-3.781,0.509-7.639
			c-0.426,0.202-0.758,0.348-0.999,0.438c-0.242,0.09-0.664,0.225-1.268,0.405c-0.604,0.179-1.077,0.329-1.418,0.453
			c-0.341,0.124-0.638,0.28-0.89,0.471c-0.251,0.19-0.431,0.388-0.537,0.589c-0.106,0.203-0.159,0.426-0.159,0.673
			c0,0.382,0.151,0.706,0.454,0.977c0.304,0.269,0.786,0.403,1.447,0.403c0.236,0,0.488-0.02,0.757-0.059
			c0.269-0.04,0.639-0.139,1.11-0.295c-0.326,0.863-0.712,2.125-1.161,3.786c-0.965,0.156-1.878,0.235-2.742,0.235
			c-1.391,0-2.549-0.193-3.474-0.581c-0.925-0.387-1.638-1.012-2.136-1.876c-0.5-0.863-0.749-1.727-0.749-2.591
			c0-0.527,0.092-1.043,0.277-1.548c0.186-0.504,0.474-0.998,0.866-1.48c0.393-0.482,0.852-0.894,1.379-1.235
			c0.527-0.343,1.248-0.666,2.161-0.968c0.914-0.304,2.071-0.589,3.473-0.858c0.583-0.112,1.118-0.233,1.606-0.361
			c0.488-0.129,0.836-0.242,1.043-0.336c0.207-0.097,0.375-0.208,0.504-0.337c0.129-0.13,0.222-0.265,0.278-0.403
			c0.056-0.142,0.084-0.289,0.084-0.446c0-0.428-0.18-0.755-0.539-0.983c-0.358-0.231-0.885-0.346-1.58-0.346
			C82.703,480.491,80.321,481.034,77.485,482.123z"/>
		<path fill="#040000" d="M96.681,494.404c0.156-1.436,0.268-2.603,0.334-3.499c0.089-1.224,0.179-2.754,0.267-4.594l0.184-3.987
			c0.078-1.806,0.133-3.533,0.167-5.182c0.045-1.974,0.067-3.875,0.067-5.703c1.572,0.023,2.75,0.034,3.537,0.034
			c0.909,0,1.987-0.011,3.233-0.034c-0.259,2.938-0.497,6.589-0.711,10.953c-0.214,4.361-0.322,8.365-0.322,12.012
			c-1.299-0.022-2.398-0.033-3.294-0.033C99.112,494.371,97.958,494.382,96.681,494.404z M104.1,484.739l2.894-4.168l2.17-3.344
			c1.548,0.022,2.72,0.033,3.517,0.033c1.099,0,2.4-0.011,3.903-0.033l-3.348,4.352c-0.785,0.997-1.587,2.073-2.405,3.228
			c0.785,1.447,2.675,4.646,5.669,9.598c-1.313-0.022-2.496-0.033-3.55-0.033c-1.077,0-2.311,0.011-3.701,0.033l-1.043-2.105
			c-0.37-0.729-0.69-1.342-0.959-1.835c-0.101-0.202-0.869-1.578-2.305-4.125L104.1,484.739z"/>
		<path fill="#040000" d="M132.02,494.404c-2.088-0.022-3.369-0.033-3.84-0.033c-0.854,0-2.229,0.011-4.126,0.033l1.397-2.423
			l8.703-16.386l0.926-1.835c0.27-0.539,0.645-1.312,1.128-2.321c1.974,0.023,3.415,0.034,4.323,0.034
			c1.582,0,3.044-0.011,4.391-0.034l2.456,7.015l4.993,13.494l0.976,2.456c-1.943-0.022-3.122-0.033-3.537-0.033
			c-0.942,0-2.33,0.011-4.16,0.033l-5.475-17.957c-0.739,1.646-1.367,2.996-1.882,4.049l-1.21,2.484"/>
		<path fill="#040000" d="M154.404,502.277c0.213-2.299,0.392-4.593,0.538-6.881c0.258-3.915,0.434-7.198,0.528-9.851
			c0.096-2.652,0.144-5.279,0.144-7.881c2.277-0.349,4.061-0.58,5.351-0.698c1.29-0.117,2.579-0.178,3.87-0.178
			c1.615,0,3.101,0.168,4.458,0.506c1.357,0.336,2.448,0.931,3.273,1.782c0.824,0.852,1.444,1.867,1.859,3.046
			c0.415,1.177,0.623,2.412,0.623,3.701c0,1.178-0.168,2.318-0.505,3.423c-0.335,1.104-0.851,2.101-1.546,2.985
			c-0.694,0.888-1.493,1.544-2.394,1.97c-0.903,0.426-1.909,0.64-3.019,0.64c-0.549,0-1.118-0.054-1.706-0.16
			c-0.588-0.107-1.145-0.261-1.672-0.463c-0.527-0.201-0.966-0.406-1.32-0.614c-0.353-0.207-0.792-0.507-1.319-0.899l-0.188,4.694
			c-0.079,2.153-0.118,3.779-0.118,4.878c-1.303-0.022-2.42-0.033-3.353-0.033C157.099,502.244,155.931,502.255,154.404,502.277z
			 M162.16,481.955c-0.09,0.504-0.153,0.917-0.187,1.235c-0.034,0.32-0.068,0.753-0.102,1.296c-0.034,0.544-0.05,0.979-0.05,1.305
			c0,0.919,0.143,1.689,0.429,2.313c0.286,0.623,0.684,1.105,1.195,1.446c0.51,0.342,1.057,0.513,1.64,0.513
			c0.618,0,1.184-0.175,1.701-0.529c0.515-0.354,0.926-0.883,1.229-1.589c0.303-0.707,0.454-1.504,0.454-2.389
			c0-1.201-0.317-2.166-0.951-2.895s-1.556-1.093-2.768-1.093C163.987,481.568,163.124,481.697,162.16,481.955z"/>
		<path fill="#040000" d="M177.032,502.277c0.213-2.299,0.392-4.593,0.538-6.881c0.257-3.915,0.434-7.198,0.529-9.851
			c0.094-2.652,0.143-5.279,0.143-7.881c2.278-0.349,4.061-0.58,5.351-0.698c1.29-0.117,2.579-0.178,3.87-0.178
			c1.615,0,3.102,0.168,4.458,0.506c1.357,0.336,2.448,0.931,3.272,1.782c0.825,0.852,1.444,1.867,1.859,3.046
			c0.415,1.177,0.622,2.412,0.622,3.701c0,1.178-0.168,2.318-0.504,3.423s-0.852,2.101-1.546,2.985
			c-0.694,0.888-1.493,1.544-2.395,1.97c-0.903,0.426-1.909,0.64-3.019,0.64c-0.549,0-1.117-0.054-1.706-0.16
			c-0.588-0.107-1.146-0.261-1.672-0.463c-0.527-0.201-0.966-0.406-1.319-0.614c-0.354-0.207-0.793-0.507-1.32-0.899l-0.187,4.694
			c-0.079,2.153-0.119,3.779-0.119,4.878c-1.303-0.022-2.419-0.033-3.352-0.033C179.727,502.244,178.559,502.255,177.032,502.277z
			 M184.788,481.955c-0.09,0.504-0.153,0.917-0.187,1.235c-0.034,0.32-0.067,0.753-0.101,1.296
			c-0.034,0.544-0.051,0.979-0.051,1.305c0,0.919,0.143,1.689,0.429,2.313c0.286,0.623,0.684,1.105,1.195,1.446
			c0.51,0.342,1.057,0.513,1.64,0.513c0.617,0,1.183-0.175,1.7-0.529c0.516-0.354,0.926-0.883,1.229-1.589
			c0.303-0.707,0.455-1.504,0.455-2.389c0-1.201-0.317-2.166-0.951-2.895c-0.634-0.729-1.557-1.093-2.768-1.093
			C186.616,481.568,185.752,481.697,184.788,481.955z"/>
		<path fill="#040000" d="M201.746,482.123c0.213-1.111,0.348-1.876,0.404-2.297c0.056-0.42,0.146-1.079,0.27-1.978
			c3.23-0.706,6.006-1.06,8.328-1.06c1.324,0,2.536,0.149,3.635,0.445c1.1,0.298,1.958,0.777,2.574,1.438
			c0.617,0.662,0.926,1.609,0.926,2.845c0,0.627-0.084,2.04-0.252,4.239c-0.167,2.198-0.297,5.081-0.386,8.647
			c-1.1-0.022-2.194-0.033-3.283-0.033c-1.054,0-2.177,0.011-3.366,0.033c0.153-1.234,0.323-3.781,0.509-7.639
			c-0.426,0.202-0.759,0.348-0.999,0.438c-0.241,0.09-0.663,0.225-1.267,0.405c-0.604,0.179-1.077,0.329-1.418,0.453
			c-0.341,0.124-0.639,0.28-0.89,0.471c-0.252,0.19-0.431,0.388-0.538,0.589c-0.106,0.203-0.159,0.426-0.159,0.673
			c0,0.382,0.151,0.706,0.454,0.977c0.303,0.269,0.785,0.403,1.447,0.403c0.235,0,0.488-0.02,0.757-0.059
			c0.269-0.04,0.639-0.139,1.11-0.295c-0.325,0.863-0.712,2.125-1.16,3.786c-0.965,0.156-1.879,0.235-2.743,0.235
			c-1.391,0-2.549-0.193-3.475-0.581c-0.925-0.387-1.637-1.012-2.137-1.876c-0.499-0.863-0.749-1.727-0.749-2.591
			c0-0.527,0.093-1.043,0.278-1.548c0.185-0.504,0.473-0.998,0.866-1.48c0.392-0.482,0.852-0.894,1.379-1.235
			c0.527-0.343,1.247-0.666,2.161-0.968c0.914-0.304,2.071-0.589,3.473-0.858c0.583-0.112,1.118-0.233,1.607-0.361
			c0.487-0.129,0.835-0.242,1.042-0.336c0.207-0.097,0.376-0.208,0.505-0.337c0.128-0.13,0.221-0.265,0.277-0.403
			c0.056-0.142,0.084-0.289,0.084-0.446c0-0.428-0.18-0.755-0.539-0.983c-0.358-0.231-0.886-0.346-1.58-0.346
			C206.964,480.491,204.582,481.034,201.746,482.123z"/>
		<path fill="#040000" d="M221.009,494.404l0.521-7.471l0.167-4.29c0.011-0.773,0.017-1.564,0.017-2.372
			c0-0.818-0.011-1.834-0.033-3.044c1.357,0.022,2.435,0.033,3.23,0.033c0.931,0,2.003-0.011,3.214-0.033l-0.07,1.901
			c0.438-0.494,0.796-0.861,1.077-1.103c0.281-0.242,0.6-0.46,0.959-0.657c0.359-0.195,0.735-0.342,1.128-0.437
			c0.393-0.096,0.802-0.144,1.229-0.144c0.404,0,0.853,0.056,1.347,0.168c0.011,1.224,0.04,2.233,0.084,3.03l0.118,2.589
			c-0.616-0.179-1.193-0.269-1.731-0.269c-0.673,0-1.253,0.098-1.74,0.295c-0.487,0.196-0.919,0.493-1.294,0.891
			c-0.375,0.399-0.675,0.895-0.899,1.489c-0.224,0.595-0.381,1.536-0.471,2.827c-0.09,1.29-0.134,2.765-0.134,4.423
			c0,0.585,0.022,1.309,0.067,2.172c-1.088-0.022-2.183-0.033-3.282-0.033C223.422,494.371,222.255,494.382,221.009,494.404z"/>
		<path fill="#040000" d="M252.487,489.324c-0.146,0.672-0.426,2.299-0.842,4.878c-1.301,0.259-2.394,0.43-3.28,0.514
			c-0.885,0.083-1.783,0.126-2.692,0.126c-1.334,0-2.563-0.092-3.685-0.278c-1.122-0.184-2.089-0.513-2.902-0.982
			c-0.813-0.471-1.494-1.056-2.043-1.757c-0.55-0.7-0.968-1.532-1.254-2.495c-0.287-0.964-0.429-1.956-0.429-2.976
			c0-1.435,0.286-2.838,0.858-4.212c0.572-1.371,1.31-2.443,2.213-3.218c0.902-0.773,1.942-1.321,3.12-1.646
			s2.384-0.488,3.618-0.488c1.278,0,2.499,0.149,3.659,0.445c1.162,0.298,2.146,0.817,2.953,1.557
			c0.808,0.74,1.383,1.577,1.725,2.508c0.342,0.931,0.513,1.935,0.513,3.011c0,0.641-0.072,1.352-0.219,2.137l-11.793,0.017
			c-0.011,0.18-0.017,0.342-0.017,0.486c0,1.207,0.432,2.095,1.296,2.664c0.863,0.569,1.918,0.854,3.163,0.854
			c0.74,0,1.584-0.086,2.532-0.261C249.927,490.033,251.096,489.737,252.487,489.324z M242.14,483.89h5.552
			c0.012-0.191,0.017-0.354,0.017-0.489c0-0.582-0.104-1.081-0.311-1.496s-0.505-0.719-0.892-0.909
			c-0.386-0.19-0.821-0.286-1.303-0.286c-0.336,0-0.662,0.054-0.977,0.161c-0.313,0.105-0.597,0.262-0.849,0.471
			c-0.252,0.207-0.462,0.446-0.631,0.715s-0.292,0.529-0.37,0.782C242.297,483.09,242.219,483.44,242.14,483.89z"/>
		<path fill="#040000" d="M256.188,494.404l0.301-3.62l0.652-12.576l0.184-6.769c1.56,0.023,2.733,0.034,3.519,0.034
			c1.022,0,2.151-0.011,3.387-0.034l-0.385,5.165l-0.618,12.72l-0.134,5.08c-1.201-0.012-2.285-0.017-3.251-0.017L256.188,494.404z"
			/>
		<path fill="#040000" d="M275.501,494.05c-0.146-2.389-0.314-4.301-0.505-5.735c1.259,0.561,2.38,0.95,3.363,1.168
			c0.983,0.22,1.845,0.329,2.587,0.329c0.976,0,1.755-0.144,2.333-0.43c0.579-0.286,0.869-0.709,0.869-1.27
			c0-0.191-0.028-0.374-0.084-0.547c-0.056-0.174-0.164-0.37-0.321-0.589c-0.157-0.218-0.382-0.458-0.674-0.715l-3.17-2.759
			c-0.741-0.629-1.258-1.083-1.551-1.363c-0.596-0.571-1.06-1.105-1.391-1.599c-0.332-0.494-0.573-0.995-0.725-1.506
			c-0.152-0.51-0.227-1.052-0.227-1.623c0-0.685,0.121-1.354,0.362-2.011c0.241-0.655,0.603-1.27,1.085-1.842
			c0.482-0.573,1.122-1.065,1.918-1.48s1.649-0.698,2.557-0.85c0.908-0.152,1.845-0.227,2.809-0.227c1.896,0,3.96,0.218,6.191,0.654
			c0.034,0.774,0.073,1.484,0.118,2.13c0.045,0.644,0.152,1.773,0.321,3.39c-1.033-0.415-1.975-0.704-2.827-0.866
			c-0.853-0.163-1.586-0.244-2.204-0.244c-0.874,0-1.601,0.162-2.179,0.487c-0.577,0.325-0.866,0.729-0.866,1.212
			c0,0.225,0.045,0.442,0.135,0.655c0.089,0.214,0.258,0.464,0.505,0.749c0.247,0.286,0.572,0.601,0.976,0.942
			c0.403,0.341,1.037,0.85,1.901,1.522l1.211,0.959c0.359,0.291,0.746,0.645,1.161,1.061c0.415,0.414,0.774,0.823,1.076,1.228
			c0.303,0.404,0.536,0.774,0.699,1.11c0.162,0.336,0.282,0.676,0.361,1.018c0.078,0.343,0.118,0.71,0.118,1.103
			c0,1.009-0.242,1.971-0.724,2.886c-0.482,0.914-1.167,1.665-2.053,2.254c-0.886,0.588-1.859,1.001-2.919,1.236
			c-1.059,0.235-2.178,0.354-3.355,0.354C280.565,494.842,278.271,494.578,275.501,494.05z"/>
		<path fill="#040000" d="M294.445,494.404c0.181-1.671,0.309-3.045,0.388-4.122c0.158-2.255,0.32-4.874,0.49-7.856
			c0.101-1.975,0.178-3.871,0.228-5.688c0.051-1.817,0.077-3.583,0.077-5.299c1.423,0.023,2.583,0.034,3.48,0.034
			c1.21,0,2.354-0.011,3.43-0.034l-0.349,4.071c-0.056,0.673-0.145,2.036-0.267,4.089c0.369-0.471,0.673-0.822,0.908-1.052
			c0.235-0.23,0.496-0.442,0.782-0.639c0.286-0.197,0.577-0.362,0.875-0.497c0.297-0.135,0.638-0.252,1.024-0.353
			c0.388-0.103,0.813-0.181,1.277-0.235c0.466-0.058,0.945-0.086,1.438-0.086c0.953,0,1.876,0.106,2.766,0.321
			c0.892,0.213,1.65,0.586,2.279,1.118c0.627,0.532,1.053,1.126,1.277,1.783c0.225,0.656,0.337,1.376,0.337,2.162
			c0,0.303-0.009,0.704-0.026,1.202c-0.016,0.5-0.053,1.13-0.107,1.893l-0.369,5.67c-0.044,0.707-0.07,1.293-0.075,1.758
			c-0.006,0.466-0.008,1.051-0.008,1.759c-1.168-0.022-2.283-0.033-3.351-0.033c-1.199,0-2.417,0.011-3.651,0.033
			c0.189-1.492,0.356-3.212,0.5-5.157c0.145-1.945,0.218-3.396,0.218-4.349c0-1.054-0.223-1.794-0.665-2.222
			c-0.444-0.426-1.029-0.638-1.76-0.638c-0.652,0-1.229,0.134-1.734,0.402c-0.449,0.235-0.842,0.602-1.179,1.095
			c-0.293,0.414-0.534,1.016-0.725,1.799c-0.225,0.955-0.397,2.362-0.521,4.225c-0.065,1.032-0.132,2.646-0.198,4.845
			c-1.132-0.022-2.19-0.033-3.176-0.033C297.061,494.371,295.857,494.382,294.445,494.404z"/>
		<path fill="#040000" d="M328.009,476.789c1.391,0,2.728,0.213,4.012,0.641c1.284,0.426,2.37,1.04,3.256,1.842
			c0.887,0.801,1.54,1.738,1.96,2.809c0.421,1.072,0.631,2.224,0.631,3.458c0,1.2-0.188,2.342-0.563,3.424
			c-0.376,1.082-1.012,2.097-1.909,3.044c-0.897,0.948-2.039,1.659-3.423,2.13c-1.386,0.471-2.853,0.706-4.4,0.706
			c-1.424,0-2.793-0.208-4.104-0.623c-1.313-0.415-2.41-1.021-3.29-1.816c-0.881-0.797-1.542-1.751-1.985-2.859
			c-0.443-1.111-0.664-2.277-0.664-3.5c0-1.224,0.216-2.389,0.648-3.5c0.431-1.11,1.115-2.108,2.053-2.995
			c0.936-0.886,2.095-1.566,3.474-2.044C325.081,477.027,326.517,476.789,328.009,476.789z M327.891,481.735
			c-0.717,0-1.357,0.187-1.918,0.556c-0.561,0.37-0.984,0.91-1.27,1.623c-0.287,0.713-0.429,1.489-0.429,2.331
			c0,1.233,0.308,2.179,0.925,2.834c0.617,0.656,1.391,0.983,2.321,0.983c0.708,0,1.341-0.188,1.901-0.563
			c0.562-0.376,0.983-0.931,1.271-1.665c0.286-0.734,0.43-1.523,0.43-2.364c0-0.695-0.113-1.323-0.338-1.884
			c-0.224-0.561-0.592-1.011-1.101-1.347C329.172,481.904,328.575,481.735,327.891,481.735z"/>
		<path fill="#040000" d="M340.341,494.404l0.521-7.471l0.168-4.29c0.011-0.773,0.018-1.564,0.018-2.372
			c0-0.818-0.012-1.834-0.033-3.044c1.356,0.022,2.434,0.033,3.229,0.033c0.932,0,2.003-0.011,3.214-0.033l-0.07,1.901
			c0.437-0.494,0.797-0.861,1.078-1.103c0.28-0.242,0.6-0.46,0.958-0.657c0.361-0.195,0.736-0.342,1.129-0.437
			c0.392-0.096,0.802-0.144,1.229-0.144c0.405,0,0.854,0.056,1.347,0.168c0.011,1.224,0.039,2.233,0.084,3.03l0.118,2.589
			c-0.617-0.179-1.193-0.269-1.732-0.269c-0.672,0-1.252,0.098-1.739,0.295c-0.486,0.196-0.919,0.493-1.294,0.891
			c-0.376,0.399-0.676,0.895-0.9,1.489c-0.224,0.595-0.381,1.536-0.471,2.827c-0.088,1.29-0.133,2.765-0.133,4.423
			c0,0.585,0.021,1.309,0.067,2.172c-1.09-0.022-2.185-0.033-3.284-0.033C342.755,494.371,341.587,494.382,340.341,494.404z"/>
		<path fill="#040000" d="M367.68,489.458c-0.202,0.941-0.377,1.861-0.522,2.759l-0.37,2.053c-1.11,0.247-1.975,0.403-2.599,0.472
			c-0.622,0.066-1.226,0.101-1.809,0.101c-0.953,0-1.8-0.081-2.54-0.244c-0.74-0.162-1.357-0.46-1.851-0.893
			c-0.494-0.431-0.83-0.928-1.01-1.488c-0.179-0.561-0.269-1.154-0.269-1.784c0-0.111,0.005-0.31,0.016-0.597
			c0.012-0.286,0.052-0.923,0.117-1.909l0.368-5.821h-2.621c0.056-0.773,0.106-1.793,0.151-3.063l0.05-1.564h2.788
			c0.066-0.516,0.15-1.644,0.251-3.382l2.881-0.588c0.526-0.101,1.649-0.359,3.367-0.773c-0.078,1.469-0.134,3.051-0.168,4.743
			h3.835c-0.09,2.333-0.135,3.876-0.135,4.627h-3.869l-0.203,4.206c-0.022,0.629-0.035,1.031-0.035,1.212
			c0,0.538,0.061,0.986,0.178,1.345c0.118,0.36,0.326,0.618,0.623,0.775c0.298,0.156,0.625,0.235,0.984,0.235
			c0.27,0,0.55-0.02,0.842-0.059C366.422,489.78,366.939,489.66,367.68,489.458z"/>
		<path fill="#040000" d="M378.717,494.404c0.235-2.276,0.398-4.106,0.486-5.484c0.134-2.042,0.263-4.849,0.387-8.422
			c0.123-3.571,0.186-5.974,0.186-7.208v-1.851c3.376,0.023,6.516,0.034,9.422,0.034c2.928,0,5.742-0.011,8.446-0.034
			c-0.18,2.58-0.271,4.268-0.271,5.063l-1.462-0.05l-1.179-0.017l-1.178-0.018h-3.314c-0.382,0-1.497,0.011-3.348,0.034l-0.152,3.92
			l2.439,0.051h2.727c0.784,0,1.984-0.018,3.6-0.051c-0.124,2.12-0.185,3.778-0.185,4.979c-1.804-0.056-3.141-0.084-4.014-0.084
			c-1.479,0-3.091,0.028-4.837,0.084l-0.176,6.057l-0.017,2.256v0.739l-3.622-0.033
			C382.376,494.371,381.063,494.382,378.717,494.404z"/>
		<path fill="#040000" d="M399.493,494.404c0.156-1.369,0.274-2.496,0.352-3.382c0.079-0.886,0.153-2.02,0.227-3.398
			c0.071-1.379,0.137-2.905,0.191-4.577c0.057-1.67,0.101-3.61,0.134-5.819c1.46,0.022,2.626,0.033,3.504,0.033
			c0.796,0,1.94-0.011,3.433-0.033c-0.192,2.119-0.332,3.981-0.415,5.584c-0.086,1.605-0.14,3.305-0.162,5.099
			c-0.046,3.185-0.069,5.35-0.069,6.494c-1.333-0.022-2.48-0.033-3.444-0.033C402.289,494.371,401.041,494.382,399.493,494.404z
			 M400.553,475.073c0.068-1.335,0.102-2.389,0.102-3.162c0-0.225-0.005-0.527-0.016-0.908c1.356,0.021,2.495,0.032,3.413,0.032
			c1.269,0,2.378-0.012,3.332-0.032c-0.034,0.348-0.057,0.639-0.067,0.875l-0.102,2.085c-0.021,0.314-0.033,0.685-0.033,1.11
			c-1.11-0.021-2.175-0.034-3.196-0.034C402.931,475.039,401.788,475.052,400.553,475.073z"/>
		<path fill="#040000" d="M410.312,494.404l0.3-3.62l0.652-12.576l0.184-6.769c1.561,0.023,2.734,0.034,3.52,0.034
			c1.021,0,2.15-0.011,3.386-0.034l-0.383,5.165l-0.619,12.72l-0.134,5.08c-1.201-0.012-2.284-0.017-3.25-0.017L410.312,494.404z"/>
		<path fill="#040000" d="M421.062,494.404l0.47-8.109l0.269-6.342l0.035-2.726c1.233,0.022,2.321,0.033,3.264,0.033
			c1.065,0,2.104-0.011,3.113-0.033l-0.117,2.237c0.349-0.449,0.642-0.794,0.884-1.035c0.24-0.24,0.535-0.472,0.883-0.69
			c0.348-0.218,0.707-0.393,1.077-0.521c0.37-0.13,0.786-0.232,1.244-0.312c0.46-0.078,0.941-0.118,1.446-0.118
			c0.571,0,1.099,0.048,1.582,0.144c0.482,0.095,0.896,0.217,1.245,0.362c0.347,0.146,0.649,0.313,0.907,0.505
			c0.258,0.19,0.485,0.406,0.681,0.646c0.197,0.241,0.425,0.593,0.683,1.052c0.493-0.718,1.015-1.262,1.564-1.632
			c0.551-0.37,1.175-0.643,1.877-0.815c0.7-0.175,1.421-0.262,2.162-0.262c0.975,0,1.895,0.141,2.759,0.421
			c0.862,0.281,1.572,0.766,2.127,1.456c0.557,0.689,0.834,1.584,0.834,2.682c0,0.517-0.038,1.296-0.111,2.34
			c-0.074,1.042-0.177,2.835-0.308,5.375c-0.129,2.54-0.2,4.322-0.212,5.342c-1.031-0.022-2.028-0.033-2.992-0.033
			c-1.176,0-2.407,0.011-3.695,0.033c0.113-1.425,0.229-3.212,0.347-5.358c0.119-2.148,0.18-3.638,0.18-4.468
			c0-0.727-0.086-1.27-0.255-1.627c-0.168-0.357-0.384-0.603-0.648-0.734c-0.265-0.131-0.555-0.194-0.869-0.194
			c-0.336,0-0.629,0.062-0.876,0.186c-0.27,0.137-0.507,0.345-0.708,0.627c-0.271,0.374-0.489,0.844-0.657,1.409
			c-0.137,0.44-0.243,1.112-0.321,2.018c-0.078,0.919-0.141,2.131-0.186,3.634l-0.135,4.509c-1.199-0.022-2.281-0.033-3.244-0.033
			c-0.987,0-2.145,0.011-3.479,0.033c0.103-0.999,0.222-2.675,0.357-5.03c0.138-2.355,0.207-3.932,0.207-4.728
			c0-0.673-0.068-1.178-0.203-1.514c-0.135-0.338-0.323-0.606-0.563-0.809c-0.241-0.201-0.563-0.302-0.967-0.302
			c-0.438,0-0.82,0.128-1.146,0.386s-0.604,0.629-0.832,1.111c-0.23,0.482-0.393,1.146-0.488,1.993
			c-0.096,0.847-0.183,2.14-0.261,3.878c-0.079,1.738-0.129,3.409-0.152,5.014c-1.357-0.022-2.459-0.033-3.3-0.033
			C423.598,494.371,422.442,494.382,421.062,494.404z"/>
		<path fill="#040000" d="M462.011,494.404c0.235-2.276,0.398-4.106,0.488-5.484c0.134-2.042,0.262-4.849,0.386-8.422
			c0.122-3.571,0.185-5.974,0.185-7.208v-1.851c3.377,0.023,6.517,0.034,9.423,0.034c2.928,0,5.742-0.011,8.445-0.034
			c-0.18,2.58-0.269,4.268-0.269,5.063l-1.464-0.05l-1.179-0.017l-1.177-0.018h-3.315c-0.381,0-1.496,0.011-3.347,0.034l-0.152,3.92
			l2.439,0.051h2.726c0.785,0,1.985-0.018,3.602-0.051c-0.125,2.12-0.187,3.778-0.187,4.979c-1.802-0.056-3.14-0.084-4.013-0.084
			c-1.479,0-3.091,0.028-4.838,0.084l-0.175,6.057l-0.017,2.256v0.739l-3.621-0.033C465.67,494.371,464.357,494.382,462.011,494.404
			z"/>
		<path fill="#040000" d="M499.545,489.324c-0.146,0.672-0.427,2.299-0.842,4.878c-1.301,0.259-2.395,0.43-3.28,0.514
			c-0.886,0.083-1.784,0.126-2.691,0.126c-1.335,0-2.563-0.092-3.686-0.278c-1.121-0.184-2.089-0.513-2.901-0.982
			c-0.813-0.471-1.494-1.056-2.044-1.757c-0.55-0.7-0.968-1.532-1.252-2.495c-0.288-0.964-0.431-1.956-0.431-2.976
			c0-1.435,0.287-2.838,0.858-4.212c0.571-1.371,1.309-2.443,2.211-3.218c0.903-0.773,1.945-1.321,3.122-1.646
			c1.178-0.325,2.384-0.488,3.617-0.488c1.278,0,2.499,0.149,3.658,0.445c1.162,0.298,2.146,0.817,2.953,1.557
			c0.808,0.74,1.382,1.577,1.725,2.508s0.514,1.935,0.514,3.011c0,0.641-0.073,1.352-0.22,2.137l-11.793,0.017
			c-0.011,0.18-0.018,0.342-0.018,0.486c0,1.207,0.433,2.095,1.296,2.664c0.864,0.569,1.919,0.854,3.163,0.854
			c0.74,0,1.583-0.086,2.533-0.261C496.984,490.033,498.153,489.737,499.545,489.324z M489.198,483.89h5.552
			c0.011-0.191,0.017-0.354,0.017-0.489c0-0.582-0.104-1.081-0.31-1.496c-0.21-0.415-0.506-0.719-0.893-0.909
			s-0.822-0.286-1.304-0.286c-0.337,0-0.662,0.054-0.976,0.161c-0.314,0.105-0.598,0.262-0.851,0.471
			c-0.252,0.207-0.463,0.446-0.631,0.715c-0.169,0.269-0.292,0.529-0.37,0.782C489.354,483.09,489.276,483.44,489.198,483.89z"/>
		<path fill="#040000" d="M503.146,494.084c-0.045-0.493-0.09-1.012-0.135-1.556s-0.117-1.293-0.22-2.246l-0.133-1.212
			c1.085,0.428,2.02,0.744,2.802,0.952c0.785,0.206,1.506,0.31,2.166,0.31c0.549,0,0.992-0.05,1.333-0.151
			c0.342-0.101,0.591-0.246,0.747-0.437c0.157-0.19,0.235-0.388,0.235-0.589c0-0.18-0.059-0.356-0.176-0.53
			c-0.118-0.174-0.384-0.412-0.798-0.715c-0.916-0.673-1.724-1.284-2.424-1.835c-0.699-0.549-1.224-1.036-1.577-1.464
			c-0.351-0.426-0.62-0.885-0.805-1.378c-0.184-0.494-0.276-1.004-0.276-1.531c0-0.931,0.266-1.8,0.799-2.607
			s1.317-1.394,2.356-1.759c1.035-0.364,2.301-0.547,3.792-0.547c1.561,0,3.551,0.201,5.974,0.606l0.269,4.71
			c-1.357-0.537-2.664-0.807-3.92-0.807c-0.886,0-1.528,0.091-1.926,0.272c-0.398,0.184-0.598,0.462-0.598,0.837
			c0,0.123,0.021,0.241,0.067,0.354c0.044,0.112,0.125,0.229,0.244,0.354c0.116,0.122,0.262,0.249,0.438,0.377
			c0.174,0.13,0.598,0.43,1.27,0.9c0.673,0.471,1.2,0.858,1.581,1.162c0.628,0.492,1.107,0.95,1.438,1.37
			c0.332,0.421,0.583,0.869,0.758,1.346c0.173,0.478,0.261,0.979,0.261,1.507c0,0.796-0.192,1.528-0.582,2.194
			c-0.385,0.667-0.97,1.226-1.748,1.675c-0.78,0.448-1.624,0.76-2.532,0.934c-0.908,0.173-1.845,0.261-2.81,0.261
			c-0.651,0-1.467-0.056-2.446-0.169C505.588,494.562,504.447,494.364,503.146,494.084z"/>
		<path fill="#040000" d="M532.436,489.458c-0.202,0.941-0.376,1.861-0.521,2.759l-0.37,2.053c-1.111,0.247-1.978,0.403-2.599,0.472
			c-0.624,0.066-1.227,0.101-1.81,0.101c-0.953,0-1.8-0.081-2.54-0.244c-0.74-0.162-1.357-0.46-1.851-0.893
			c-0.494-0.431-0.83-0.928-1.01-1.488s-0.269-1.154-0.269-1.784c0-0.111,0.005-0.31,0.016-0.597
			c0.011-0.286,0.052-0.923,0.118-1.909l0.368-5.821h-2.622c0.056-0.773,0.107-1.793,0.152-3.063l0.049-1.564h2.788
			c0.067-0.516,0.15-1.644,0.251-3.382l2.881-0.588c0.526-0.101,1.648-0.359,3.367-0.773c-0.078,1.469-0.135,3.051-0.168,4.743
			h3.835c-0.09,2.333-0.135,3.876-0.135,4.627h-3.869l-0.203,4.206c-0.022,0.629-0.034,1.031-0.034,1.212
			c0,0.538,0.06,0.986,0.178,1.345c0.117,0.36,0.325,0.618,0.622,0.775c0.298,0.156,0.625,0.235,0.984,0.235
			c0.271,0,0.551-0.02,0.842-0.059C531.178,489.78,531.695,489.66,532.436,489.458z"/>
		<path fill="#040000" d="M534.488,494.404c0.156-1.369,0.274-2.496,0.352-3.382c0.078-0.886,0.153-2.02,0.227-3.398
			c0.07-1.379,0.137-2.905,0.19-4.577c0.057-1.67,0.102-3.61,0.135-5.819c1.458,0.022,2.626,0.033,3.501,0.033
			c0.798,0,1.942-0.011,3.436-0.033c-0.193,2.119-0.332,3.981-0.417,5.584c-0.084,1.605-0.138,3.305-0.161,5.099
			c-0.046,3.185-0.068,5.35-0.068,6.494c-1.334-0.022-2.482-0.033-3.446-0.033C537.283,494.371,536.035,494.382,534.488,494.404z
			 M535.548,475.073c0.067-1.335,0.101-2.389,0.101-3.162c0-0.225-0.006-0.527-0.018-0.908c1.358,0.021,2.496,0.032,3.416,0.032
			c1.268,0,2.378-0.012,3.332-0.032c-0.034,0.348-0.057,0.639-0.068,0.875l-0.101,2.085c-0.022,0.314-0.034,0.685-0.034,1.11
			c-1.109-0.021-2.174-0.034-3.195-0.034C537.926,475.039,536.781,475.052,535.548,475.073z"/>
		<path fill="#040000" d="M549.971,494.404l-1.785-5.519l-4.023-11.658c1.279,0.022,2.47,0.033,3.569,0.033
			c1.146,0,2.222-0.011,3.233-0.033c0.19,0.773,0.565,2.128,1.127,4.063s1.18,4.236,1.854,6.906l0.436-1.397
			c0.068-0.168,0.332-0.886,0.792-2.152l2.672-7.419c1.211,0.022,2.354,0.033,3.43,0.033c1.108,0,2.264-0.011,3.463-0.033
			l-2.319,4.996l-4.321,9.926l-0.925,2.255c-1.322-0.022-2.489-0.033-3.499-0.033C552.574,494.371,551.34,494.382,549.971,494.404z"
			/>
		<path fill="#040000" d="M567.227,482.123c0.214-1.111,0.349-1.876,0.404-2.297c0.056-0.42,0.146-1.079,0.27-1.978
			c3.229-0.706,6.006-1.06,8.328-1.06c1.324,0,2.535,0.149,3.635,0.445c1.099,0.298,1.958,0.777,2.575,1.438
			c0.616,0.662,0.925,1.609,0.925,2.845c0,0.627-0.084,2.04-0.253,4.239c-0.167,2.198-0.295,5.081-0.385,8.647
			c-1.099-0.022-2.193-0.033-3.282-0.033c-1.056,0-2.178,0.011-3.367,0.033c0.152-1.234,0.323-3.781,0.509-7.639
			c-0.425,0.202-0.757,0.348-0.999,0.438c-0.24,0.09-0.662,0.225-1.267,0.405c-0.604,0.179-1.077,0.329-1.418,0.453
			c-0.342,0.124-0.638,0.28-0.89,0.471s-0.43,0.388-0.537,0.589c-0.107,0.203-0.159,0.426-0.159,0.673
			c0,0.382,0.151,0.706,0.454,0.977c0.303,0.269,0.785,0.403,1.447,0.403c0.235,0,0.488-0.02,0.757-0.059
			c0.269-0.04,0.639-0.139,1.109-0.295c-0.324,0.863-0.712,2.125-1.16,3.786c-0.965,0.156-1.879,0.235-2.742,0.235
			c-1.391,0-2.549-0.193-3.473-0.581c-0.927-0.387-1.64-1.012-2.138-1.876c-0.5-0.863-0.749-1.727-0.749-2.591
			c0-0.527,0.092-1.043,0.278-1.548c0.184-0.504,0.473-0.998,0.866-1.48c0.391-0.482,0.851-0.894,1.378-1.235
			c0.527-0.343,1.248-0.666,2.162-0.968c0.914-0.304,2.071-0.589,3.471-0.858c0.585-0.112,1.12-0.233,1.607-0.361
			c0.487-0.129,0.835-0.242,1.043-0.336c0.207-0.097,0.376-0.208,0.505-0.337c0.128-0.13,0.221-0.265,0.277-0.403
			c0.056-0.142,0.084-0.289,0.084-0.446c0-0.428-0.18-0.755-0.539-0.983c-0.358-0.231-0.884-0.346-1.579-0.346
			C572.446,480.491,570.064,481.034,567.227,482.123z"/>
		<path fill="#040000" d="M586.473,494.404l0.302-3.62l0.652-12.576l0.183-6.769c1.561,0.023,2.733,0.034,3.521,0.034
			c1.021,0,2.148-0.011,3.386-0.034l-0.383,5.165l-0.619,12.72l-0.134,5.08c-1.201-0.012-2.285-0.017-3.252-0.017L586.473,494.404z"
			/>
	</g>
	<g display="inline">
		<path fill="#040000" d="M2.973,460.363c1.107-10.835,1.893-19.818,2.36-26.946c0.874-12.632,1.807-29.93,2.798-51.893
			c0.698-15.298,1.049-26.077,1.049-32.336v-7.475c9.667,0.117,16.326,0.174,19.974,0.174c2.432,0,8.683-0.058,18.758-0.174
			l-4.108,64.932l-2.099,53.719L22.86,460.19C20.196,460.19,13.566,460.248,2.973,460.363z M46.521,397.736l19.471-26.492
			l15.733-22.062l4.868-7.47c10.778,0.117,18.08,0.174,21.904,0.174c1.043,0,7.967-0.058,20.774-0.174L92.59,388.006l-6.867,9.294
			l6.432,10.264l36.334,52.799l-21.383-0.173c-4.637,0-12.488,0.058-23.556,0.173C76.075,446.272,63.732,425.396,46.521,397.736z"/>
		<path fill="#040000" d="M164.867,460.363c-10.79-0.115-17.403-0.173-19.839-0.173c-4.41,0-11.516,0.058-21.319,0.173l7.219-12.518
			l44.962-84.663l4.784-9.475c1.391-2.781,3.333-6.779,5.827-11.995c10.197,0.117,17.643,0.174,22.336,0.174
			c8.17,0,15.73-0.058,22.684-0.174l12.683,36.247l25.8,69.713l5.039,12.69c-10.037-0.115-16.127-0.173-18.273-0.173
			c-4.873,0-12.037,0.058-21.493,0.173l-28.289-92.775c-3.822,8.505-7.064,15.475-9.726,20.912"/>
		<path fill="#040000" d="M283.126,458.538c-0.754-12.345-1.624-22.224-2.608-29.642c6.502,2.898,12.292,4.912,17.373,6.042
			c5.08,1.13,9.536,1.695,13.369,1.695c5.05,0,9.069-0.738,12.06-2.218c2.99-1.477,4.485-3.664,4.485-6.562
			c0-0.985-0.146-1.927-0.436-2.825c-0.291-0.898-0.843-1.912-1.654-3.042c-0.814-1.13-1.975-2.361-3.484-3.694l-16.376-14.256
			c-3.833-3.244-6.504-5.591-8.014-7.041c-3.078-2.956-5.473-5.707-7.186-8.258c-1.714-2.549-2.962-5.142-3.746-7.779
			c-0.783-2.636-1.175-5.433-1.175-8.389c0-3.534,0.623-6.997,1.869-10.387c1.247-3.39,3.115-6.563,5.607-9.518
			c2.491-2.956,5.793-5.504,9.91-7.649c4.113-2.144,8.518-3.607,13.212-4.39c4.693-0.782,9.531-1.173,14.516-1.173
			c9.792,0,20.456,1.13,31.988,3.39c0.173,3.998,0.376,7.665,0.608,10.996c0.23,3.333,0.782,9.17,1.651,17.515
			c-5.332-2.144-10.2-3.636-14.604-4.476c-4.404-0.84-8.2-1.261-11.387-1.261c-4.521,0-8.271,0.84-11.256,2.521
			c-2.986,1.681-4.478,3.767-4.478,6.258c0,1.16,0.231,2.29,0.695,3.39c0.464,1.102,1.332,2.391,2.608,3.868
			c1.272,1.478,2.955,3.101,5.042,4.868c2.085,1.768,5.358,4.389,9.821,7.866l6.26,4.955c1.854,1.508,3.853,3.333,5.997,5.477
			c2.143,2.145,3.997,4.259,5.562,6.345c1.564,2.086,2.768,3.999,3.608,5.737c0.839,1.738,1.463,3.492,1.868,5.259
			c0.406,1.768,0.608,3.665,0.608,5.693c0,5.216-1.246,10.186-3.737,14.906c-2.491,4.725-6.026,8.605-10.604,11.649
			c-4.577,3.041-9.604,5.17-15.08,6.388c-5.478,1.217-11.258,1.826-17.343,1.826C309.289,462.624,297.439,461.261,283.126,458.538z"
			/>
		<path fill="#040000" d="M382.913,460.363c1.217-11.764,2.055-21.21,2.52-28.338c0.693-10.545,1.358-25.046,1.995-43.504
			c0.639-18.456,0.958-30.872,0.958-37.247v-9.562c17.442,0.117,33.669,0.174,48.678,0.174c15.125,0,29.672-0.058,43.639-0.174
			c-0.927,13.329-1.391,22.05-1.391,26.164l-7.562-0.261l-6.085-0.087l-6.085-0.087h-17.124c-1.971,0-7.735,0.058-17.298,0.174
			l-0.78,20.253l12.603,0.26h14.082c4.055,0,10.256-0.086,18.601-0.26c-0.636,10.952-0.955,19.529-0.955,25.729
			c-9.313-0.29-16.229-0.435-20.74-0.435c-7.638,0-15.969,0.145-24.991,0.435l-0.903,31.292l-0.09,11.648v3.824l-18.708-0.173
			C401.825,460.19,395.037,460.248,382.913,460.363z"/>
		<path fill="#040000" d="M492.177,460.363c1.215-11.764,2.054-21.21,2.518-28.338c0.694-10.545,1.358-25.046,1.997-43.504
			c0.637-18.456,0.956-30.872,0.956-37.247v-9.562c17.442,0.117,33.669,0.174,48.678,0.174c15.126,0,29.672-0.058,43.639-0.174
			c-0.927,13.329-1.392,22.05-1.392,26.164l-7.561-0.261l-6.085-0.087l-6.085-0.087h-17.124c-1.97,0-7.735,0.058-17.298,0.174
			l-0.779,20.253l12.603,0.26h14.081c4.056,0,10.256-0.086,18.602-0.26c-0.637,10.952-0.955,19.529-0.955,25.729
			c-9.314-0.29-16.229-0.435-20.741-0.435c-7.637,0-15.968,0.145-24.991,0.435l-0.903,31.292l-0.089,11.648v3.824l-18.709-0.173
			C511.087,460.19,504.299,460.248,492.177,460.363z"/>
	</g>
</g>
</svg>
